<svg id="Calque_1" xmlns="http://www.w3.org/2000/svg" viewBox="0 0 559 50.6"><style>.st0{fill:#c11f1f}</style><path class="st0" d="M152.6 22.2v-2.7c0-.1.1-.1.1-.1l.1.1v-1.4c0-.1.1-.1.1-.1l.1.1v12.5c0-.1.1-.1.1-.1.1 0 .1.1.1.1v-4.1c0-.1.1-.1.1-.1l.1.1V20c0-.1.1-.1.1-.1l.1.1v14.4c0-.1.1-.1.1-.1.1 0 .1.1.1.1V.8c0-.1.1-.1.1-.1l.1.1v20.4c0-.1.1-.1.1-.1.1 0 .1.1.1.1v-3.1c0-.1.1-.1.1-.1l.1.1v9c0-.1.1-.1.1-.1.1 0 .1.1.1.1v-8.9c0-.1.1-.1.1-.1.1 0 .1.1.1.1v-1.3c0-.1.1-.1.1-.1l.1.1v9.5c0-.1.1-.1.1-.1.1 0 .1.1.1.1V13.9c0-.1.1-.1.1-.1l.1.1v18.7c0-.1.1-.1.1-.1.1 0 .1.1.1.1V4.7c0-.1.1-.1.1-.1l.1.1v14.2c0-.1.1-.1.1-.1.1 0 .1.1.1.1v-7.1c0-.1.1-.1.1-.1l.1.1v10.4c0-.1.1-.1.1-.1l.1.1V33c0-.1.1-.1.1-.1.1 0 .1.1.1.1V11.3c0-.1.1-.1.1-.1l.1.1v4.2c0-.1.1-.1.1-.1.1 0 .1.1.1.1v9.7c0-.1.1-.1.1-.1.1 0 .1.1.1.1V14.4c0-.1.1-.1.1-.1l.1.1v1.4c0-.1.1-.1.1-.1l.1.1v10.4c0-.1.1-.1.1-.1.1 0 .1.1.1.1v-3.3c0-.1.1-.1.1-.1l.1.1v5.2c0-.1.1-.1.1-.1.1 0 .1.1.1.1V6.6c0-.1.1-.1.1-.1l.1.1V36c0-.1.1-.1.1-.1.1 0 .1.1.1.1V14.5c0-.1.1-.1.1-.1l.1.1v7.6c0-.1.1-.1.1-.1l.1.1V24c0-.1.1-.1.1-.1.1 0 .1.1.1.1v1.1c0-.1.1-.1.1-.1.1 0 .1.1.1.1v-5.2c0-.1.1-.1.1-.1l.1.1v4.3c0-.1.1-.1.1-.1.1 0 .1.1.1.1v-9.4c0-.1.1-.1.1-.1l.1.1v14.5c0-.1.1-.1.1-.1.1 0 .1.1.1.1V9.8c0-.1.1-.1.1-.1l.1.1v10.9c0-.1.1-.1.1-.1l.1.1v1.1c0-.1.1-.1.1-.1.1 0 .1.1.1.1v-2.2c0-.1.1-.1.1-.1l.1.1v12.6c0-.1.1-.1.1-.1.1 0 .1.1.1.1v-6.5c0-.1.1-.1.1-.1l.1.1V34c0-.1.1-.1.1-.1.1 0 .1.1.1.1V12.4c0-.1.1-.1.1-.1l.1.1v2.9c0-.1.1-.1.1-.1.1 0 .1.1.1.1v14c0-.1.1-.1.1-.1.1 0 .1.1.1.1V5.9c0-.1.1-.1.1-.1l.1.1v18.8c0-.1.1-.1.1-.1l.1.1v.1c0-.1.1-.1.1-.1.1 0 .1.1.1.1v-7.1c0-.1.1-.1.1-.1l.1.1v.8c0-.1.1-.1.1-.1.1 0 .1.1.1.1V12c0-.1.1-.1.1-.1l.1.1v17.4c0-.1.1-.1.1-.1.1 0 .1.1.1.1V22c0-.1.1-.1.1-.1l.1.1v-5.6c0-.1.1-.1.1-.1l.1.1V35c0-.1.1-.1.1-.1.1 0 .1.1.1.1v-3.6c0-.1.1-.1.1-.1.1 0 .1.1.1.1V29c0-.1.1-.1.1-.1l.1.1v2.9c0-.1.1-.1.1-.1.1 0 .1.1.1.1V18.7c0-.1.1-.1.1-.1l.1.1v17c0-.1.1-.1.1-.1.1 0 .1.1.1.1v-10c0-.1.1-.1.1-.1l.1.1v-8.2c0-.1.1-.1.1-.1l.1.1v10.4c0-.1.1-.1.1-.1.1 0 .1.1.1.1v-.5c0-.1.1-.1.1-.1l.1.1v5.2c0-.1.1-.1.1-.1.1 0 .1.1.1.1V19.8c0-.1.1-.1.1-.1l.1.1v19.3c0-.1.1-.1.1-.1.1 0 .1.1.1.1v-9.3c0-.1.1-.1.1-.1l.1.1v9.4c0-.1.1-.1.1-.1.1 0 .1.1.1.1v-9.7c0-.1.1-.1.1-.1l.1.1v10.2c0-.1.1-.1.1-.1.1 0 .1.1.1.1V30c0-.1.1-.1.1-.1l.1.1v5.7c0-.1.1-.1.1-.1.1 0 .1.1.1.1v1c0-.1.1-.1.1-.1l.1.1v-3.6c0-.1.1-.1.1-.1l.1.1v2.7c0-.1.1-.1.1-.1.1 0 .1.1.1.1V24.3c0-.1.1-.1.1-.1l.1.1v17c0-.1.1-.1.1-.1.1 0 .1.1.1.1V26.5c0-.1.1-.1.1-.1l.1.1v15.2c0-.1.1-.1.1-.1.1 0 .1.1.1.1V27c0-.1.1-.1.1-.1l.1.1v17.6c0-.1.1-.1.1-.1.1 0 .1.1.1.1V30.3c0-.1.1-.1.1-.1l.1.1V36c0-.1.1-.1.1-.1.1 0 .1.1.1.1V22.8c0-.1.1-.1.1-.1l.1.1v24.5c0-.1.1-.1.1-.1.1 0 .1.1.1.1v-20c0-.1.1-.1.1-.1l.1.1v1c0-.1.1-.1.1-.1.1 0 .1.1.1.1v6.6c0-.1.1-.1.1-.1l.1.1v8.5c0-.1.1-.1.1-.1.1 0 .1.1.1.1v-2c0-.1.1-.1.1-.1.1 0 .1.1.1.1v-5.6c0-.1.1-.1.1-.1l.1.1V33c0-.1.1-.1.1-.1.1 0 .1.1.1.1v-9.7c0-.1.1-.1.1-.1l.1.1v17.9c0-.1.1-.1.1-.1.1 0 .1.1.1.1V30.4c0-.1.1-.1.1-.1l.1.1v5.1c0-.1.1-.1.1-.1.1 0 .1.1.1.1V26c0-.1.1-.1.1-.1l.1.1v13.8c0-.1.1-.1.1-.1l.1.1v-4.3c0-.1.1-.1.1-.1l.1.1V41c0-.1.1-.1.1-.1.1 0 .1.1.1.1v-4.8c0-.1.1-.1.1-.1l.1.1V46c0-.1.1-.1.1-.1.1 0 .1.1.1.1v-7.8c0-.1.1-.1.1-.1.1 0 .1.1.1.1v-1.5c0-.1.1-.1.1-.1l.1.1v.6c0-.1.1-.1.1-.1l.1.1v8.9c0-.1.1-.1.1-.1.1 0 .1.1.1.1v-8.6c0-.1.1-.1.1-.1.1 0 .1.1.1.1v-1.2c0-.1.1-.1.1-.1l.1.1v-1.7c0-.1.1-.1.1-.1.1 0 .1.1.1.1v-1.5c0-.1.1-.1.1-.1l.1.1v-.6c0-.1.1-.1.1-.1.1 0 .1.1.1.1v-.4c0-.1.1-.1.1-.1l.1.1v3.7c0-.1.1-.1.1-.1.1 0 .1.1.1.1v-3c0-.1.1-.1.1-.1l.1.1v8.8c0-.1.1-.1.1-.1.1 0 .1.1.1.1v-6c0-.1.1-.1.1-.1l.1.1v9.2c0-.1.1-.1.1-.1.1 0 .1.1.1.1V34.4c0-.1.1-.1.1-.1l.1.1v8c0-.1.1-.1.1-.1.1 0 .1.1.1.1V35c0-.1.1-.1.1-.1l.1.1v2c0-.1.1-.1.1-.1l.1.1v4.1c0-.1.1-.1.1-.1.1 0 .1.1.1.1v-5.2c0-.1.1-.1.1-.1l.1.1v-.1c0-.1.1-.1.1-.1.1 0 .1.1.1.1v-3.1c0-.1.1-.1.1-.1l.1.1v1.6c0-.1.1-.1.1-.1.1 0 .1.1.1.1v-4.5c0-.1.1-.1.1-.1l.1.1v7.5c0-.1.1-.1.1-.1.1 0 .1.1.1.1v-3.8c0-.1.1-.1.1-.1l.1.1v.1c0-.1.1-.1.1-.1l.1.1v2.6c0-.1.1-.1.1-.1.1 0 .1.1.1.1v2.7c0-.1.1-.1.1-.1.1 0 .1.1.1.1v-2.8c0-.1.1-.1.1-.1l.1.1v5.5c0-.1.1-.1.1-.1.1 0 .1.1.1.1v-3c0-.1.1-.1.1-.1l.1.1v3.1c0-.1.1-.1.1-.1.1 0 .1.1.1.1v-3.5c0-.1.1-.1.1-.1l.1.1v8.3h.2V34.3c0-.1.1-.1.1-.1l.1.1v5c0-.1.1-.1.1-.1.1 0 .1.1.1.1v-5c0-.1.1-.1.1-.1l.1.1c0-.1.1-.1.1-.1.1 0 .1.1.1.1V32c0-.1.1-.1.1-.1l.1.1v-.5c0-.1.1-.1.1-.1.1 0 .1.1.1.1v-5c0-.1.1-.1.1-.1l.1.1v10.2c0-.1.1-.1.1-.1l.1.1V38c0-.1.1-.1.1-.1.1 0 .1.1.1.1v-2.7c0-.1.1-.1.1-.1l.1.1v3.8c0-.1.1-.1.1-.1.1 0 .1.1.1.1v-2.4c0-.1.1-.1.1-.1l.1.1v5.9c0-.1.1-.1.1-.1.1 0 .1.1.1.1V31.5c0-.1.1-.1.1-.1l.1.1v8c0-.1.1-.1.1-.1.1 0 .1.1.1.1v-5.7c0-.1.1-.1.1-.1l.1.1v5.1c0-.1.1-.1.1-.1.1 0 .1.1.1.1v-1.3c0-.1.1-.1.1-.1l.1.1v-1.8c0-.1.1-.1.1-.1l.1.1v1.7c0-.1.1-.1.1-.1.1 0 .1.1.1.1v-3.6c0-.1.1-.1.1-.1.1 0 .1.1.1.1V32c0-.1.1-.1.1-.1l.1.1v12.2c0-.1.1-.1.1-.1.1 0 .1.1.1.1V27.5c0-.1.1-.1.1-.1l.1.1v16.8c0-.1.1-.1.1-.1.1 0 .1.1.1.1V27.8c0-.1.1-.1.1-.1l.1.1v-.3c0-.1.1-.1.1-.1l.1.1v11.4c0-.1.1-.1.1-.1.1 0 .1.1.1.1V21.5c0-.1.1-.1.1-.1l.1.1v15c0-.1.1-.1.1-.1.1 0 .1.1.1.1v-11c0-.1.1-.1.1-.1l.1.1v9.7c0-.1.1-.1.1-.1.1 0 .1.1.1.1V24.8c0-.1.1-.1.1-.1l.1.1v4.5c0-.1.1-.1.1-.1.1 0 .1.1.1.1v-2.1c0-.1.1-.1.1-.1l.1.1v-2.6c0-.1.1-.1.1-.1l.1.1v5.9c0-.1.1-.1.1-.1.1 0 .1.1.1.1V15.7c0-.1.1-.1.1-.1l.1.1v4.1c0-.1.1-.1.1-.1.1 0 .1.1.1.1v5.7c0-.1.1-.1.1-.1.1 0 .1.1.1.1V9.1c0-.1.1-.1.1-.1l.1.1V2.7c0-.1.1-.1.1-.1l.1.1v6.9c0-.1.1-.1.1-.1.1 0 .1.1.1.1v3.5c0-.1.1-.1.1-.1.1 0 .1.1.1.1V5.2c0-.1.1-.1.1-.1l.1.1v18.1c0-.1.1-.1.1-.1l.1.1v7.3c0-.1.1-.1.1-.1.1 0 .1.1.1.1v-.8c0-.1.1-.1.1-.1.1 0 .1.1.1.1V21c0-.1.1-.1.1-.1l.1.1v7.6c0-.1.1-.1.1-.1.1 0 .1.1.1.1V14.3c0-.1.1-.1.1-.1l.1.1v5.5c0-.1.1-.1.1-.1l.1.1v6.4c0-.1.1-.1.1-.1.1 0 .1.1.1.1V15.5c0-.1.1-.1.1-.1l.1.1v.6c0-.1.1-.1.1-.1.1 0 .1.1.1.1v4.1c0-.1.1-.1.1-.1.1 0 .1.1.1.1v-6.9c0-.1.1-.1.1-.1l.1.1v14.5c0-.1.1-.1.1-.1.1 0 .1.1.1.1v-4.9c0-.1.1-.1.1-.1l.1.1V27c0-.1.1-.1.1-.1l.1.1v-6.9c0-.1.1-.1.1-.1l.1.1v12.3c0-.1.1-.1.1-.1.1 0 .1.1.1.1V9.7c0-.1.1-.1.1-.1.1 0 .1.1.1.1V.5c0-.1.1-.1.1-.1l.1.1v2.2c0-.1.1-.1.1-.1l.1.1v16.4c0-.1.1-.1.1-.1.1 0 .1.1.1.1v1.7c0-.1.1-.1.1-.1l.1.1v.3c0-.1.1-.1.1-.1.1 0 .1.1.1.1v-6.9c0-.1.1-.1.1-.1l.1.1v3.3c0-.1.1-.1.1-.1.1 0 .1.1.1.1V15c0-.1.1-.1.1-.1l.1.1v2.2c0-.1.1-.1.1-.1.1 0 .1.1.1.1V20c0-.1.1-.1.1-.1l.1.1v1c0-.1.1-.1.1-.1.1 0 .1.1.1.1v5.4c0-.1.1-.1.1-.1.1 0 .1.1.1.1v-3.6c0-.1.1-.1.1-.1l.1.1V22c0-.1.1-.1.1-.1l.1.1v6.6c0-.1.1-.1.1-.1.1 0 .1.1.1.1V17.2c0-.1.1-.1.1-.1l.1.1V26c0-.1.1-.1.1-.1.1 0 .1.1.1.1V14.1c0-.1.1-.1.1-.1l.1.1v6.4c0-.1.1-.1.1-.1.1 0 .1.1.1.1v10.1c0-.1.1-.1.1-.1l.1.1v.8c0-.1.1-.1.1-.1.1 0 .1.1.1.1V14c0-.1.1-.1.1-.1l.1.1v6.1c0-.1.1-.1.1-.1l.1.1v4.1c0-.1.1-.1.1-.1.1 0 .1.1.1.1v-4.5c0-.1.1-.1.1-.1.1 0 .1.1.1.1v-3.9c0-.1.1-.1.1-.1l.1.1v-4.9c0-.1.1-.1.1-.1l.1.1v10.5c0-.1.1-.1.1-.1.1 0 .1.1.1.1v4.4c0-.1.1-.1.1-.1.1 0 .1.1.1.1V20c0-.1.1-.1.1-.1l.1.1v-3.1c0-.1.1-.1.1-.1.1 0 .1.1.1.1v-1.4c0-.1.1-.1.1-.1l.1.1v5c0-.1.1-.1.1-.1.1 0 .1.1.1.1v-4c0-.1.1-.1.1-.1l.1.1v3.4c0-.1.1-.1.1-.1l.1.1V39c0-.1.1-.1.1-.1.1 0 .1.1.1.1V22.3c0-.1.1-.1.1-.1l.1.1V28c0-.1.1-.1.1-.1.1 0 .1.1.1.1v9c0-.1.1-.1.1-.1.1 0 .1.1.1.1V24.8c0-.1.1-.1.1-.1l.1.1V22c0-.1.1-.1.1-.1.1 0 .1.1.1.1v-7.2c0-.1.1-.1.1-.1l.1.1v20.6c0-.1.1-.1.1-.1.1 0 .1.1.1.1v-22c0-.1.1-.1.1-.1l.1.1v14.2c0-.1.1-.1.1-.1.1 0 .1.1.1.1v-2.3c0-.1.1-.1.1-.1l.1.1v-6.2c0-.1.1-.1.1-.1l.1.1v-.3c0-.1.1-.1.1-.1l.1.1v16.6c0-.1.1-.1.1-.1.1 0 .1.1.1.1v.5c0-.1.1-.1.1-.1l.1.1V37c0-.1.1-.1.1-.1.1 0 .1.1.1.1v-7c0-.1.1-.1.1-.1.1 0 .1.1.1.1v-7.4c0-.1.1-.1.1-.1l.1.1V26c0-.1.1-.1.1-.1.1 0 .1.1.1.1v-2.5c0-.1.1-.1.1-.1l.1.1V46c0-.1.1-.1.1-.1.1 0 .1.1.1.1V13.4c0-.1.1-.1.1-.1l.1.1v28c0-.1.1-.1.1-.1.1 0 .1.1.1.1V31.1c0-.1.1-.1.1-.1l.1.1V33c0-.1.1-.1.1-.1.1 0 .1.1.1.1v-.8c0-.1.1-.1.1-.1l.1.1v2.4c0-.1.1-.1.1-.1.1 0 .1.1.1.1V28c0-.1.1-.1.1-.1l10.9.1v7.1c0-.1.1-.1.1-.1.1 0 .1.1.1.1v-5.9c0-.1.1-.1.1-.1l.1.1v3.2c0-.1.1-.1.1-.1.1 0 .1.1.1.1v-2.7c0-.1.1-.1.1-.1l.1.1v1.5c0-.1.1-.1.1-.1l.1.1v3.9c0-.1.1-.1.1-.1.1 0 .1.1.1.1V25c0-.1.1-.1.1-.1l.1.1v9.8c0-.1.1-.1.1-.1.1 0 .1.1.1.1V23.7c0-.1.1-.1.1-.1l.1.1v4.2c0-.1.1-.1.1-.1.1 0 .1.1.1.1v.1c0-.1.1-.1.1-.1l.1.1v-.7c0-.1.1-.1.1-.1l.1.1V29c0-.1.1-.1.1-.1.1 0 .1.1.1.1v-2.9c0-.1.1-.1.1-.1l.1.1v16.1c0-.1.1-.1.1-.1.1 0 .1.1.1.1v-8.9c0-.1.1-.1.1-.1.1 0 .1.1.1.1V17.1c0-.1.1-.1.1-.1l.1.1v17.3c0-.1.1-.1.1-.1.1 0 .1.1.1.1V20.8c0-.1.1-.1.1-.1l.1.1v5.8c0-.1.1-.1.1-.1.1 0 .1.1.1.1V25c0-.1.1-.1.1-.1l.1.1v2c0-.1.1-.1.1-.1.1 0 .1.1.1.1V13.5c0-.1.1-.1.1-.1l.1.1v17.6c0-.1.1-.1.1-.1.1 0 .1.1.1.1v-2c0-.1.1-.1.1-.1l.1.1V26c0-.1.1-.1.1-.1.1 0 .1.1.1.1v-3.9c0-.1.1-.1.1-.1l.1.1v-3.2c0-.1.1-.1.1-.1l.1.1V33c0-.1.1-.1.1-.1.1 0 .1.1.1.1v-7.7c0-.1.1-.1.1-.1.1 0 .1.1.1.1V6.9c0-.1.1-.1.1-.1l.1.1V28c0-.1.1-.1.1-.1.1 0 .1.1.1.1v-2.2c0-.1.1-.1.1-.1l.1.1v-9.6c0-.1.1-.1.1-.1l.1.1v12.2c0-.1.1-.1.1-.1.1 0 .1.1.1.1v-5.6c0-.1.1-.1.1-.1l.1.1v-.1c0-.1.1-.1.1-.1l.1.1v4.1c0-.1.1-.1.1-.1.1 0 .1.1.1.1v6.9c0-.1.1-.1.1-.1l.1.1v3c0-.1.1-.1.1-.1.1 0 .1.1.1.1V27c0-.1.1-.1.1-.1l.1.1v12.8c0-.1.1-.1.1-.1.1 0 .1.1.1.1V28.6c0-.1.1-.1.1-.1l.1.1v4.3c0-.1.1-.1.1-.1.1 0 .1.1.1.1V15.4c0-.1.1-.1.1-.1l.1.1v10.8c0-.1.1-.1.1-.1.1 0 .1.1.1.1v.7c0-.1.1-.1.1-.1.1 0 .1.1.1.1v-1.7c0-.1.1-.1.1-.1l.1.1V30c0-.1.1-.1.1-.1.1 0 .1.1.1.1v-4.4c0-.1.1-.1.1-.1l.1.1V17c0-.1.1-.1.1-.1l.1.1v19c0-.1.1-.1.1-.1.1 0 .1.1.1.1V26c0-.1.1-.1.1-.1l.1.1v1.4c0-.1.1-.1.1-.1.1 0 .1.1.1.1v-4.1c0-.1.1-.1.1-.1l.1.1v18c0-.1.1-.1.1-.1.1 0 .1.1.1.1V17c0-.1.1-.1.1-.1l.1.1v9.3c0-.1.1-.1.1-.1.1 0 .1.1.1.1v4.3c0-.1.1-.1.1-.1l.1.1v-5.3c0-.1.1-.1.1-.1.1 0 .1.1.1.1v-.1c0-.1.1-.1.1-.1l.1.1v-4.8c0-.1.1-.1.1-.1l.1.1v.3c0-.1.1-.1.1-.1.1 0 .1.1.1.1v13.1c0-.1.1-.1.1-.1.1 0 .1.1.1.1v-5.2c0-.1.1-.1.1-.1l.1.1v-5.2c0-.1.1-.1.1-.1.1 0 .1.1.1.1v-5.8c0-.1.1-.1.1-.1l.1.1V31c0-.1.1-.1.1-.1l.1.1v.8c0-.1.1-.1.1-.1.1 0 .1.1.1.1v-7.1c0-.1.1-.1.1-.1l.1.1v4.8c0-.1.1-.1.1-.1.1 0 .1.1.1.1v10.8c0-.1.1-.1.1-.1.1 0 .1.1.1.1v-11c0-.1.1-.1.1-.1l.1.1v1.3c0-.1.1-.1.1-.1.1 0 .1.1.1.1v-5.9c0-.1.1-.1.1-.1l.1.1v6c0-.1.1-.1.1-.1.1 0 .1.1.1.1V28c0-.1.1-.1.1-.1l.1.1V14.4c0-.1.1-.1.1-.1l.1.1v23.3c0-.1.1-.1.1-.1.1 0 .1.1.1.1V25.5c0-.1.1-.1.1-.1l.1.1v10.3c0-.1.1-.1.1-.1.1 0 .1.1.1.1v-3.1c0-.1.1-.1.1-.1l.1.1v4.1c0-.1.1-.1.1-.1.1 0 .1.1.1.1V14.2c0-.1.1-.1.1-.1l.1.1V37c0-.1.1-.1.1-.1.1 0 .1.1.1.1v-4.3c0-.1.1-.1.1-.1l.1.1v2.1c0-.1.1-.1.1-.1.1 0 .1.1.1.1v-2.1c0-.1.1-.1.1-.1l.1.1v-5.3c0-.1.1-.1.1-.1l.1.1v2.1c0-.1.1-.1.1-.1.1 0 .1.1.1.1V15.2c0-.1.1-.1.1-.1l.1.1v21.5c0-.1.1-.1.1-.1.1 0 .1.1.1.1V12.2c0-.1.1-.1.1-.1l.1.1v16.9c0-.1.1-.1.1-.1.1 0 .1.1.1.1v1c0-.1.1-.1.1-.1.1 0 .1.1.1.1v-3.5c0-.1.1-.1.1-.1l.1.1v-9c0-.1.1-.1.1-.1l.1.1v9.6c0-.1.1-.1.1-.1.1 0 .1.1.1.1v-1.3c0-.1.1-.1.1-.1l.1.1v4.3c0-.1.1-.1.1-.1.1 0 .1.1.1.1v-2.8c0-.1.1-.1.1-.1l.1.1v.8c0-.1.1-.1.1-.1.1 0 .1.1.1.1v4.6c0-.1.1-.1.1-.1.1 0 .1.1.1.1V6.5c0-.1.1-.1.1-.1l.1.1v2.9c0-.1.1-.1.1-.1l.1.1v3.5c0-.1.1-.1.1-.1.1 0 .1.1.1.1v20.9c0-.1.1-.1.1-.1.1 0 .1.1.1.1V10.7c0-.1.1-.1.1-.1l.1.1v7.5c0-.1.1-.1.1-.1.1 0 .1.1.1.1v-3c0-.1.1-.1.1-.1l.1.1V.2c0-.1.1-.1.1-.1l.1.1v17.9c0-.1.1-.1.1-.1.1 0 .1.1.1.1v20c0-.1.1-.1.1-.1l.1.1V11.3c0-.1.1-.1.1-.1l.1.1v13.3c0-.1.1-.1.1-.1.1 0 .1.1.1.1v-7.3c0-.1.1-.1.1-.1l.1.1v2c0-.1.1-.1.1-.1.1 0 .1.1.1.1v-8.8c0-.1.1-.1.1-.1l.1.1v10.9c0-.1.1-.1.1-.1.1 0 .1.1.1.1v6.3c0-.1.1-.1.1-.1.1 0 .1.1.1.1V8.4c0-.1.1-.1.1-.1l.1.1v24.1c0-.1.1-.1.1-.1.1 0 .1.1.1.1V14.8c0-.1.1-.1.1-.1l.1.1v8.3c0-.1.1-.1.1-.1.1 0 .1.1.1.1v-1c0-.1.1-.1.1-.1l.1.1V.7c0-.1.1-.1.1-.1l.1.1v9c0-.1.1-.1.1-.1.1 0 .1.1.1.1v25c0-.1.1-.1.1-.1.1 0 .1.1.1.1V15.6c0-.1.1-.1.1-.1l.1.1v-5.1c0-.1.1-.1.1-.1l.1.1v15.6c0-.1.1-.1.1-.1.1 0 .1.1.1.1v-5.7c0-.1.1-.1.1-.1.1 0 .1.1.1.1v-4.6c0-.1.1-.1.1-.1l.1.1v3c0-.1.1-.1.1-.1l.1.1v4.5c0-.1.1-.1.1-.1.1 0 .1.1.1.1V4.1c0-.1.1-.1.1-.1l.1.1v20.1c0-.1.1-.1.1-.1.1 0 .1.1.1.1v-3.4c0-.1.1-.1.1-.1l.1.1v-5.4c0-.1.1-.1.1-.1l.1.1v12.7c0-.1.1-.1.1-.1.1 0 .1.1.1.1v-10c0-.1.1-.1.1-.1l.1.1v.4c0-.1.1-.1.1-.1.1 0 .1.1.1.1v14c0-.1.1-.1.1-.1.1 0 .1.1.1.1V19.3c0-.1.1-.1.1-.1l.1.1v-.4c0-.1.1-.1.1-.1l.1.1v6c0-.1.1-.1.1-.1.1 0 .1.1.1.1V14.2c0-.1.1-.1.1-.1l.1.1v13.1c0-.1.1-.1.1-.1.1 0 .1.1.1.1V16.8c0-.1.1-.1.1-.1l.1.1V21c0-.1.1-.1.1-.1.1 0 .1.1.1.1v-2.4c0-.1.1-.1.1-.1.1 0 .1.1.1.1v-.8c0-.1.1-.1.1-.1l.1.1v4.1c0-.1.1-.1.1-.1.1 0 .1.1.1.1v-6.6c0-.1.1-.1.1-.1l.1.1v-1.2c0-.1.1-.1.1-.1.1 0 .1.1.1.1v-6c0-.1.1-.1.1-.1l.1.1v11.2c0-.1.1-.1.1-.1l.1.1v4.3c0-.1.1-.1.1-.1.1 0 .1.1.1.1v5.1c0-.1.1-.1.1-.1.1 0 .1.1.1.1V.1c0-.1.1-.1.1-.1H145.8c.1 0 .1.1.1.1v16.4c0-.1.1-.1.1-.1l.1.1v5.9c0-.1.1-.1.1-.1.1 0 .1.1.1.1V8.9c0-.1.1-.1.1-.1.1 0 .1.1.1.1V7.7c0-.1.1-.1.1-.1l.1.1v14.8c0-.1.1-.1.1-.1l.1.1v7.6c0-.1.1-.1.1-.1.1 0 .1.1.1.1V8c0-.1.1-.1.1-.1l.1.1v15.7c0-.1.1-.1.1-.1l.1.1v17.8c0-.1.1-.1.1-.1.1 0 .1.1.1.1v1.3c.1 0 .2 0 .2-.1v-1.4c0 .1-.1.1-.1.1-.1 0-.1-.1-.1-.1V5.7c0-.1.1-.1.1-.1l.1.1v22c0-.1.1-.1.1-.1.1 0 .1.1.1.1v-8.9c0-.1.1-.1.1-.1.1 0 .1.1.1.1V.2c0-.1.1-.1.1-.1l.1.1v15c0-.1.1-.1.1-.1l.1.1v27.3h.2v-38c0-.1.1-.1.1-.1.1 0 .1.1.1.1V2.3c0-.1.1-.1.1-.1l.1.1V18c0-.1.1-.1.1-.1l.1.1v24.5h.2V25.3c0-.1.1-.1.1-.1.1 0 .1.1.1.1v-.5c0-.1.1-.1.1-.1l.1.1V9.1c0-.1.1-.1.1-.1.1 0 .1.1.1.1V5.9c0-.1.1-.1.1-.1l.1.1v7.8c0-.1.1-.1.1-.1l.1.1v16.7c0-.1.1-.1.1-.1.1 0 .1.1.1.1v-9.1c0-.1.1-.1.1-.1.1 0 .1.1.1.1v-.9c0-.1.1-.1.1-.1l.1.1v1.8c0-.1.1-.1.1-.1 1.2 0 1.2.1 1.2.1zM0 0v50.2h.1c-.1 0-.1.1-.1.1l.1.1h1.1v.1h2.4c.1-.1.2-.2.3-.4H1.2v-.4c0-.1.1-.1.1-.1l.1.1v-4.1c0-.1.1-.1.1-.1.1 0 .1.1.1.1v-.9c0-.1.1-.1.1-.1l.1.1c0-.1.1-.1.1-.1.1 0 .1.1.1.1v-.5c0-.1.1-.1.1-.1l.1.1V47c0-.1.1-.1.1-.1.1 0 .1.1.1.1v-1.5c0-.1.1-.1.1-.1l.1.1V47c0-.1.1-.1.1-.1l.1.1v-5.5c0-.1.1-.1.1-.1.1 0 .1.1.1.1v-.1c0-.1.1-.1.1-.1l.1.1v.5c0-.1.1-.1.1-.1.1 0 .1.1.1.1v-8.8c0-.1.1-.1.1-.1l.1.1v7.5c0-.1.1-.1.1-.1.1 0 .1.1.1.1V40c0-.1.1-.1.1-.1l.1.1v-.5c0-.1.1-.1.1-.1l.1.1v6.2c0-.1.1-.1.1-.1.7-.1.7 0 .7.1V32.6c0-.1.1-.1.1-.1.1 0 .1.1.1.1v-3.1c0-.1.1-.1.1-.1l.1.1v13.6c0-.1.1-.1.1-.1.1 0 .1.1.1.1V25.4c0-.1.1-.1.1-.1s.3 0 .3.1v22.7c0-.1.1-.1.1-.1.1 0 .1.1.1.1v-7.2c0-.1.1-.1.1-.1l.1.1v7.7h.2V37.9c0-.1.1-.1.1-.1s.3 0 .3.1v6.2c0-.1 0-.1.1-.1s.1.1.1.1v-3.8c0-.1.1-.1.1-.1l.1.1v-2.8c0-.1.1-.1.1-.1.1 0 .1.1.1.1v-1.1c0-.1.1-.1.1-.1l.1.1c0-.1.1-.1.1-.1.1 0 .1.1.1.1v-6.7c0-.1.1-.1.1-.1l.1.1v14.1c0-.1.1-.1.1-.1.1 0 .1.1.1.1v-11c0-.1.1-.1.1-.1l.1.1v-3.5c0-.1.1-.1.1-.1l.1.1V42c0-.1.1-.1.1-.1.1 0 .1.1.1.1v-9.2c0-.1.1-.1.1-.1l.1.1v8.5c0-.1.1-.1.1-.1l.1.1v3c0-.1.1-.1.1-.1.1 0 .1.1.1.1v.5c0-.1.1-.1.1-.1l.1.1V48c0-.1.1-.1.1-.1.1 0 .1.1.1.1V36c0-.1.1-.1.1-.1l.1.1v2.8c0-.1.1-.1.1-.1.1 0 .1.1.1.1v-2.2c0-.1.1-.1.1-.1l.1.1v4.8c0-.1.1-.1.1-.1.1 0 .1.1.1.1V37c0-.1.1-.1.1-.1.1 0 .1.1.1.1v-1.5c0-.1.1-.1.1-.1l.1.1V35c0-.1.1-.1.1-.1.1 0 .1.1.1.1v-7.3c0-.1.1-.1.1-.1l.1.1v14c0-.1.1-.1.1-.1.1 0 .1.1.1.1v-5.9c0-.1.1-.1.1-.1l.1.1V41c0-.1.1-.1.1-.1.1 0 .1.1.1.1v-5.8c0-.1.1-.1.1-.1l.1.1v8.1c0-.1.1-.1.1-.1.1 0 .1.1.1.1v-2.1c0-.1.1-.1.1-.1l.1.1v-3.6c0-.1.1-.1.1-.1l.1.1v6.6c0-.1.1-.1.1-.1.1 0 .1.1.1.1V44c0-.1.1-.1.1-.1l.1.1v1.6c0-.1.1-.1.1-.1.1 0 .1.1.1.1V30.1c0-.1.1-.1.1-.1l.1.1v10.3c0-.1.1-.1.1-.1l.1.1v.8c0-.1.1-.1.1-.1.1 0 .1.1.1.1v7.1c0-.1.1-.1.1-.1.1 0 .1.1.1.1v-9c0-.1.1-.1.1-.1l.1.1v4.1c0-.1.1-.1.1-.1l.1.1v2.7c0-.1.1-.1.1-.1.1 0 .1.1.1.1V41c0-.1.1-.1.1-.1.1 0 .1.1.1.1v-1.3c0-.1.1-.1.1-.1l.1.1v2.9c0-.1.1-.1.1-.1l.1.1v2c0-.1.1-.1.1-.1.1 0 .1.1.1.1v-13c0-.1.1-.1.1-.1l.1.1v17.7c.1 0 .2 0 .2.1V33.1c0-.1.1-.1.1-.1l.1.1v10.3c0-.1.1-.1.1-.1.1 0 .1.1.1.1v-1.7c0-.1.1-.1.1-.1l.1.1v1.4c0-.1.1-.1.1-.1.1 0 .1.1.1.1v2c0-.1.1-.1.1-.1l.1.1v.3c0-.1.1-.1.1-.1.1 0 .1.1.1.1V37c0-.1.1-.1.1-.1l.1.1v1c0-.1.1-.1.1-.1.1 0 .1.1.1.1v1.3c0-.1.1-.1.1-.1.1 0 .1.1.1.1v-4.1c0-.1.1-.1.1-.1l.1.1v11.3c0-.1.1-.1.1-.1.1 0 .1.1.1.1v-3.6c0-.1.1-.1.1-.1l.1.1v-7.1c0-.1.1-.1.1-.1l.1.1V38c0-.1.1-.1.1-.1l.1.1v.2c0-.1.1-.1.1-.1.1 0 .1.1.1.1v.2c0-.1.1-.1.1-.1.1 0 .1.1.1.1v-1.2c0-.1.1-.1.1-.1l.1.1v3.4c0-.1.1-.1.1-.1l.1.1v.8c0-.1.1-.1.1-.1.1 0 .1.1.1.1v3.1c0-.1.1-.1.1-.1.1 0 .1.1.1.1v-2c0-.1.1-.1.1-.1l.1.1v1.9c0-.1.1-.1.1-.1.1 0 .1.1.1.1V37c0-.1.1-.1.1-.1l.1.1v-.2c0-.1.1-.1.1-.1.1 0 .1.1.1.1V36c0-.1.1-.1.1-.1s2.9 0 2.9.1v-2.2c0-.1.1-.1.1-.1l.1.1v9.8c0-.1.1-.1.1-.1.1 0 .1.1.1.1v-1c0-.1.1-.1.1-.1l.1.1v.7c0-.1.1-.1.1-.1.1 0 .1.1.1.1v-2.1c0-.1.1-.1.1-.1l.1.1V44c0-.1.1-.1.1-.1.1 0 .1.1.1.1v-7.8c0-.1.1-.1.1-.1l.1.1V38c0-.1.1-.1.1-.1.1 0 .1.1.1.1v6.6c0-.1.1-.1.1-.1.1 0 .1.1.1.1v-1.4c0-.1.1-.1.1-.1l.1.1v-3.5c0-.1.1-.1.1-.1l.1.1v4.5c0-.1.1-.1.1-.1.1 0 .1.1.1.1v2c0-.1.1-.1.1-.1l.1.1v-9.4c0-.1.1-.1.1-.1.1 0 .1.1.1.1v-3.6c0-.1.1-.1.1-.1l.1.1v.8c0-.1.1-.1.1-.1l.1.1v8.8c0-.1.1-.1.1-.1.1 0 .1.1.1.1V42c0-.1.1-.1.1-.1.1 0 .1.1.1.1V31c0-.1.1-.1.1-.1l.1.1v11.5c0-.1.1-.1.1-.1.1 0 .1.1.1.1v-7.1c0-.1.1-.1.1-.1l.1.1v8c0-.1.1-.1.1-.1.1 0 .1.1.1.1v-2.7c0-.1.1-.1.1-.1l.1.1v2.2c0-.1.1-.1.1-.1l.1.1V46c0-.1.1-.1.1-.1.1 0 .1.1.1.1v-1.5c0-.1.1-.1.1-.1.1 0 .1.1.1.1v-2c0-.1.1-.1.1-.1l.1.1v3.8c0-.1.1-.1.1-.1.1 0 .1.1.1.1V36c0-.1.1-.1.1-.1s1.3 0 1.3.1v7.3c0-.1.1-.1.1-.1.1 0 .1.1.1.1v-.6c0-.1.1-.1.1-.1l.1.1v-1.4c0-.1.1-.1.1-.1.1 0 .1.1.1.1V39c0-.1.1-.1.1-.1l.1.1v5.8c0-.1.1-.1.1-.1.1 0 .1.1.1.1v-2c0-.1.1-.1.1-.1l.1.1v-2.1c0-.1.1-.1.1-.1l.1.1v6c0-.1.1-.1.1-.1.1 0 .1.1.1.1V45c0-.1.1-.1.1-.1l.1.1v.1c0-.1.1-.1.1-.1l.1.1v.2c0-.1.1-.1.1-.1.1 0 .1.1.1.1v-.6c0-.1.1-.1.1-.1.1 0 .1.1.1.1v-2c0-.1.1-.1.1-.1l.1.1v1.5c0-.1.1-.1.1-.1.1 0 .1.1.1.1v-.1c0-.1.1-.1.1-.1l.1.1v-1.8c0-.1.1-.1.1-.1l.1.1v4.9c0-.1.1-.1.1-.1.1 0 .1.1.1.1v-8.7c0-.1.1-.1.1-.1l.1.1v4.1c0-.1.1-.1.1-.1.1 0 .1.1.1.1v4.1c0-.1.1-.1.1-.1l.1.1v.4c0-.1.1-.1.1-.1.1 0 .1.1.1.1v-6.3c0-.1.1-.1.1-.1l.1.1v1c0-.1.1-.1.1-.1.1 0 .1.1.1.1v1c0-.1.1-.1.1-.1l.1.1v1.7c0-.1.1-.1.1-.1.1 0 .1.1.1.1v.3c0-.1.1-.1.1-.1l.1.1v.6c0-.1.1-.1.1-.1.1 0 .1.1.1.1v-1.9c0-.1.1-.1.1-.1l.1.1v1.9c0-.1.1-.1.1-.1.1 0 .1.1.1.1v-2.7c0-.1.1-.1.1-.1l.1.1v2.4c0-.1.1-.1.1-.1.1 0 .1.1.1.1v-1.6c0-.1.1-.1.1-.1l.1.1v1.3c0-.1.1-.1.1-.1.1 0 .1.1.1.1v.2c0-.1.1-.1.1-.1l.1.1v.6c0-.1.1-.1.1-.1l.1.1v.2c0-.1.1-.1.1-.1.1 0 .1.1.1.1v-2c0-.1.1-.1.1-.1.1 0 .1.1.1.1v-.3c0-.1.1-.1.1-.1l.1.1v1.3c0-.1.1-.1.1-.1.1 0 .1.1.1.1v-5.2c0-.1.1-.1.1-.1l.1.1v6c0-.1.1-.1.1-.1.1 0 .1.1.1.1v-3c0-.1.1-.1.1-.1l.1.1v2c0-.1.1-.1.1-.1.1 0 .1.1.1.1v-1c0-.1.1-.1.1-.1l.1.1v-1.8c0-.1.1-.1.1-.1.1 0 .1.1.1.1v-2.3c0-.1.1-.1.1-.1l.1.1V44c0-.1.1-.1.1-.1l.1.1v1c0-.1.1-.1.1-.1.1 0 .1.1.1.1v-3.3c0-.1.1-.1.1-.1l.1.1v3.6c0-.1.1-.1.1-.1.1 0 .1.1.1.1v.9c0-.1.1-.1.1-.1.1 0 .1.1.1.1v-2.9c0-.1.1-.1.1-.1l.1.1v1c0-.1.1-.1.1-.1.1 0 .1.1.1.1v-2.9c0-.1.1-.1.1-.1l.1.1V44c0-.1.1-.1.1-.1.1 0 .1.1.1.1v-1.9c0-.1.1-.1.1-.1l.1.1v1.5c0-.1.1-.1.1-.1.1 0 .1.1.1.1v-4.5c0-.1.1-.1.1-.1l.1.1v2.4c0-.1.1-.1.1-.1l.1.1v-7.3c0-.1.1-.1.1-.1l.1.1v1.4c0-.1.1-.1.1-.1.1 0 .1.1.1.1v1.3c0-.1.1-.1.1-.1.1 0 .1.1.1.1v-6.1c0-.1.1-.1.1-.1l.1.1v10c0-.1.1-.1.1-.1.1 0 .1.1.1.1v-9.9c0-.1.1-.1.1-.1l.1.1v5.5c0-.1.1-.1.1-.1.1 0 .1.1.1.1v-.7c0-.1.1-.1.1-.1l.1.1v1.9c0-.1.1-.1.1-.1.1 0 .1.1.1.1V33c0-.1.1-.1.1-.1l.1.1v9.1c0-.1.1-.1.1-.1.1 0 .1.1.1.1v-5c0-.1.1-.1.1-.1H48v-.9c0-.1.1-.1.1-.1.1 0 .1.1.1.1v-.5c0-.1.1-.1.1-.1l.1.1v3.9c0-.1.1-.1.1-.1.1 0 .1.1.1.1v-2.9c0-.1.1-.1.1-.1l.1.1v-1.9c0-.1.1-.1.1-.1l.1.1v2c0-.1.1-.1.1-.1.1 0 .1.1.1.1v.5c0-.1.1-.1.1-.1l.1.1v1c0-.1.1-.1.1-.1.1 0 .1.1.1.1V40c0-.1.1-.1.1-.1l.1.1v4c0-.1.1-.1.1-.1.1 0 .1.1.1.1v1.9c0-.1.1-.1.1-.1.1 0 .1.1.1.1v-2.6c0-.1.1-.1.1-.1l.1.1v1.5c0-.1.1-.1.1-.1l.1.1v-.3c0-.1.1-.1.1-.1.1 0 .1.1.1.1v-1c0-.1.1-.1.1-.1l.1.1v-1.7c0-.1.1-.1.1-.1l.1.1v1.7c0-.1.1-.1.1-.1.1 0 .1.1.1.1v-3.7c0-.1.1-.1.1-.1l.1.1v.1c0-.1.1-.1.1-.1.1 0 .1.1.1.1v-1.5c0-.1.1-.1.1-.1l.1.1v2.2c0-.1.1-.1.1-.1.1 0 .1.1.1.1v-5.7c0-.1.1-.1.1-.1l.1.1v.6c0-.1.1-.1.1-.1.1 0 .1.1.1.1 0-.1.1-.1.1-.1l.1.1V40c0-.1.1-.1.1-.1.1 0 .1.1.1.1v1.3c0-.1.1-.1.1-.1.1 0 .1.1.1.1v-7c0-.1.1-.1.1-.1l.1.1v-.1c0-.1.1-.1.1-.1l.1.1v10.6c0-.1.1-.1.1-.1.1 0 .1.1.1.1V36c0-.1.1-.1.1-.1l.1.1v2.5c0-.1.1-.1.1-.1.1 0 .1.1.1.1v.2c0-.1.1-.1.1-.1.1 0 .1.1.1.1v-3c0-.1.1-.1.1-.1l.1.1v6.4C55.9 42 56 42 56 42c.1 0 .1.1.1.1v-2.4c0-.1.1-.1.1-.1l.1.1v-.6c0-.1.1-.1.1-.1.1 0 .1.1.1.1v-.5c0-.1.1-.1.1-.1l.1.1v-8.7c0-.1.1-.1.1-.1l.1.1v7.6c0-.1.1-.1.1-.1.1 0 .1.1.1.1V34c0-.1.1-.1.1-.1l.1.1v4.2c0-.1.1-.1.1-.1.1 0 .1.1.1.1v-5.4c0-.1.1-.1.1-.1l.1.1v9.8c0-.1.1-.1.1-.1.1 0 .1.1.1.1v-5c0-.1.1-.1.1-.1l.1.1V41c0-.1.1-.1.1-.1.1 0 .1.1.1.1v-.9c0-.1.1-.1.1-.1l.1.1v-3c0-.1.1-.1.1-.1l.1.1v4.5c0-.1.1-.1.1-.1.1 0 .1.1.1.1V36c0-.1.1-.1.1-.1l.1.1v4.1c0-.1.1-.1.1-.1.1 0 .1.1.1.1v2.5c0-.1.1-.1.1-.1.1 0 .1.1.1.1v-5.5c0-.1.1-.1.1-.1l.1.1v1.2c0-.1.1-.1.1-.1l.1.1v6.4c0-.1.1-.1.1-.1.1 0 .1.1.1.1V42c0-.1.1-.1.1-.1l.1.1v2c0-.1.1-.1.1-.1.1 0 .1.1.1.1v1.1c0-.1.1-.1.1-.1.1 0 .1.1.1.1v-9c0-.1.1-.1.1-.1l.1.1V43c0-.1.1-.1.1-.1.1 0 .1.1.1.1v-4.4c0-.1.1-.1.1-.1l.1.1v-8.3c0-.1.1-.1.1-.1l.1.1v5.8c0-.1.1-.1.1-.1.1 0 .1.1.1.1v3.1c0-.1.1-.1.1-.1l.1.1v.3c0-.1.1-.1.1-.1.1 0 .1.1.1.1v-1c0-.1.1-.1.1-.1l.1.1v-1.6c0-.1.1-.1.1-.1l.1.1v2.7c0-.1.1-.1.1-.1.1 0 .1.1.1.1v3.3c0-.1.1-.1.1-.1l.1.1v1.5c0-.1.1-.1.1-.1.1 0 .1.1.1.1V44c0-.1.1-.1.1-.1l.1.1v1.7c0-.1.1-.1.1-.1.1 0 .1.1.1.1v-3.9c0-.1.1-.1.1-.1.1 0 .1.1.1.1v-.6c0-.1.1-.1.1-.1l.1.1v2.9c0-.1.1-.1.1-.1.1 0 .1.1.1.1v-1.8c0-.1.1-.1.1-.1l.1.1v-10c0-.1.1-.1.1-.1l.1.1v3.6c0-.1.1-.1.1-.1.1 0 .1.1.1.1v1.3c0-.1.1-.1.1-.1l.1.1v3.6c0-.1.1-.1.1-.1.1 0 .1.1.1.1V38c0-.1.1-.1.1-.1.1 0 .1.1.1.1v-1.3c0-.1.1-.1.1-.1l.1.1v2.2c0-.1.1-.1.1-.1.1 0 .1.1.1.1v-4.1c0-.1.1-.1.1-.1l.1.1v1.3c0-.1.1-.1.1-.1l.1.1v2.2c0-.1.1-.1.1-.1.1 0 .1.1.1.1v-3.1c0-.1.1-.1.1-.1l.1.1v.6c0-.1.1-.1.1-.1.1 0 .1.1.1.1V31c0-.1.1-.1.1-.1l.1.1v7.3c0-.1.1-.1.1-.1.1 0 .1.1.1.1v-2.5c0-.1.1-.1.1-.1l.1.1V38c0-.1.1-.1.1-.1l.1.1v.1c0-.1.1-.1.1-.1.1 0 .1.1.1.1v-.6c0-.1.1-.1.1-.1l.1.1v2.7c0-.1.1-.1.1-.1.1 0 .1.1.1.1v-.1c0-.1.1-.1.1-.1.1 0 .1.1.1.1v-1c0-.1.1-.1.1-.1s2.6-.1 2.6 0v-.9c0-.1.1-.1.1-.1.1 0 .1.1.1.1v-2.6c0-.1.1-.1.1-.1l.1.1v7.1c0-.1.1-.1.1-.1.1 0 .1.1.1.1v-.8c0-.1.1-.1.1-.1l.1.1v1.9c0-.1.1-.1.1-.1.1 0 .1.1.1.1v-1c0-.1.1-.1.1-.1l.1.1v2.7c0-.1.1-.1.1-.1l.1.1v1c0-.1.1-.1.1-.1.1 0 .1.1.1.1V45c0-.1.1-.1.1-.1.1 0 .1.1.1.1v-1.6c0-.1.1-.1.1-.1l.1.1v.6c0-.1.1-.1.1-.1.1 0 .1.1.1.1v-1.3c0-.1.1-.1.1-.1l.1.1V44c0-.1.1-.1.1-.1l.1.1v.7c0-.1.1-.1.1-.1.1 0 .1.1.1.1v-.3c0-.1.1-.1.1-.1.1 0 .1.1.1.1v-.3c0-.1.1-.1.1-.1l.1.1v1c0-.1.1-.1.1-.1l.1.1v-1.3c0-.1.1-.1.1-.1l.1.1v.6c0-.1.1-.1.1-.1.1 0 .1.1.1.1v.8c0-.1.1-.1.1-.1.1 0 .1.1.1.1v-3.1c0-.1.1-.1.1-.1l.1.1v1.1c0-.1.1-.1.1-.1.1 0 .1.1.1.1v-1c0-.1.1-.1.1-.1l.1.1v.5c0-.1.1-.1.1-.1l.1.1v2.8c0-.1.1-.1.1-.1.1 0 .1.1.1.1 0-.1.1-.1.1-.1l.1.1v.3c0-.1.1-.1.1-.1.1 0 .1.1.1.1v-3.3c0-.1.1-.1.1-.1l.1.1v1c0-.1.1-.1.1-.1.1 0 .1.1.1.1v.6c0-.1.1-.1.1-.1l.1.1v.9c0-.1.1-.1.1-.1.1 0 .1.1.1.1v-.4c0-.1.1-.1.1-.1.1 0 .1.1.1.1v-4.1c0-.1.1-.1.1-.1l.1.1V23.9c0-.1.1-.1.1-.1l.1.1v5.6c0-.1.1-.1.1-.1.1 0 .1.1.1.1v-.1c0-.1.1-.1.1-.1.1 0 .1.1.1.1V23c0-.1.1-.1.1-.1l.1.1v17.1c0-.1.1-.1.1-.1.1 0 .1.1.1.1V15.8c0-.1.1-.1.1-.1l.1.1v1.9c0-.1.1-.1.1-.1.1 0 .1.1.1.1v-15c0-.1.1-.1.1-.1l.1.1v20.5c0-.1.1-.1.1-.1l.1.1v13.5c0-.1.1-.1.1-.1.1 0 .1.1.1.1V11.9c0-.1.1-.1.1-.1l.1.1v3.2c0-.1.1-.1.1-.1.1 0 .1.1.1.1V15c0-.1.1-.1.1-.1l.1.1v32.1h.2v-5.4c0-.1.1-.1.1-.1l.1.1V32c0-.1.1-.1.1-.1.1 0 .1.1.1.1V18.8c0-.1.1-.1.1-.1l.1.1v-7c0-.1.1-.1.1-.1l.1.1v16.4c0 .1-.1.1-.1.1s1.9 0 1.9-.1V47h.2V28.3c0-.1.1-.1.1-.1l.1.1V4c0-.1.1-.1.1-.1l.3.1v32c0-.1.1-.1.1-.1.1 0 .1.1.1.1V15.4c0-.1.1-.1.1-.1l.1.1v9.3c0-.1.1-.1.1-.1.1 0 .1.1.1.1v11.1c0-.1.1-.1.1-.1.1 0 .1.1.1.1V17c0-.1.1-.1.1-.1l.3.1v9.5c0-.1.1-.1.1-.1.1 0 .1.1.1.1v-3c0-.1.1-.1.1-.1l.1.1v23.2h.2V11.5c0-.1.1-.1.1-.1l.1.1v17.1c0-.1.1-.1.1-.1.1 0 .1.1.1.1V20c0-.1.1-.1.1-.1l.1.1v26.7c.2 0 .3 0 .5-.1V32c0-.1.1-.1.1-.1l.1.1V17.3c0-.1.1-.1.1-.1l.1.1v29.1h.2V35.7c0-.1.1-.1.1-.1.1 0 .1.1.1.1v-7.9c0-.1.1-.1.1-.1l.1.1v-4.7c0-.1.1-.1.1-.1.1 0 .1.1.1.1v-.7c0-.1.1-.1.1-.1l.1.1v23.9h.2V7.4c0-.1.1-.1.1-.1s.6 0 .6.1v13c0-.1.1-.1.1-.1.1 0 .1.1.1.1v-6.2c0-.1.1-.1.1-.1l.1.1v2.7c0-.1.1-.1.1-.1l.1.1v20.7c0-.1.1-.1.1-.1.1 0 .1.1.1.1v-31c0-.1.1-.1.1-.1l.1.1v7.8c0-.1.1-.1.1-.1.1 0 .1.1.1.1v-3.8c0-.1.1-.1.1-.1l.1.1V46h.2V14.5c0-.1.1-.1.1-.1l.1.1v3.8c0-.1.1-.1.1-.1.1 0 .1.1.1.1V12c0-.1.1-.1.1-.1l.1.1v6.9c0-.1.1-.1.1-.1.1 0 .1.1.1.1v-7.3c0-.1.1-.1.1-.1l.1.1v2.3c0-.1.1-.1.1-.1.1 0 .1.1.1.1V1.3c0-.1.1-.1.1-.1l.1.1v2.1c0-.1.1-.1.1-.1.1 0 .1.1.1.1v36.5c0-.1.1-.1.1-.1l.1.1v5.9h.2v-6c0 .1-.1.1-.1.1-.1 0-.1-.1-.1-.1V6.1c0-.1.1-.1.1-.1l.1.1v25c0-.1.1-.1.1-.1.1 0 .1.1.1.1v9.3c0-.1.1-.1.1-.1.1 0 .1.1.1.1V23.5c0-.1.1-.1.1-.1l.1.1v10.8c0-.1.1-.1.1-.1.1 0 .1.1.1.1v-6.8c0-.1.1-.1.1-.1l.1.1V10.3c0-.1.1-.1.1-.1l.1.1v3.8c0-.1.1-.1.1-.1 1.1 0 1.1 0 1.1.1V3.7c0-.1.1-.1.1-.1.1 0 .1.1.1.1V2c0-.1.1-.1.1-.1l.1.1v10.2c0-.1.1-.1.1-.1l.1.1v6.2c0-.1.1-.1.1-.1.1 0 .1.1.1.1v25.5c0-.1.1-.1.1-.1.1 0 .1.1.1.1V31c0-.1.1-.1.1-.1l.1.1v-8.5c0-.1.1-.1.1-.1.1 0 .1.1.1.1v-1.7c0-.1.1-.1.1-.1l.1.1v7.9c0-.1.1-.1.1-.1l.1.1v14.8c0-.1.1-.1.1-.1.1 0 .1.1.1.1V1.4c0-.1.1-.1.1-.1l.1.1v41.4c0-.1.1-.1.1-.1.1 0 .1.1.1.1v-22c0-.1.1-.1.1-.1l.1.1v7.8c0-.1.1-.1.1-.1.1 0 .1.1.1.1v17.8c.1 0 .2 0 .2.1V16.8c0-.1.1-.1.1-.1l.1.1v26.6c0-.1.1-.1.1-.1l.1.1V6.1c0-.1.1-.1.1-.1l.1.1v40.5c.1 0 .2.1.2.1V15.6c0-.1.1-.1.1-.1.1 0 .1.1.1.1V12c0-.1.1-.1.1-.1l.1.1v7.1c0-.1.1-.1.1-.1l.1.1v.4c0-.1.1-.1.1-.1.1 0 .1.1.1.1v27.6c.1 0 .2.1.2.1V13.3c0-.1.1-.1.1-.1l.1.1v16.2c0-.1.1-.1.1-.1.1 0 .1.1.1.1V21c0-.1.1-.1.1-.1l.1.1v8.5c0-.1.1-.1.1-.1l.1.1v1c0-.1.1-.1.1-.1.1 0 .1.1.1.1V25c0-.1.1-.1.1-.1.1 0 .1.1.1.1v-4c0-.1.1-.1.1-.1l.1.1v5.4c0-.1.1-.1.1-.1l.1.1v18.1c0-.1.1-.1.1-.1.1 0 .1.1.1.1v-9.7c0-.1.1-.1.1-.1l.1.1v6.4c0-.1.1-.1.1-.1.1 0 .1.1.1.1V25.9c0-.1.1-.1.1-.1.1 0 .1.1.1.1V24c0-.1.1-.1.1-.1l.1.1v2.4c0-.1.1-.1.1-.1.1 0 .1.1.1.1v-3.1c0-.1.1-.1.1-.1l.1.1v-6.4c0-.1.1-.1.1-.1.1 0 .1.1.1.1v-.3c0-.1.1-.1.1-.1l.1.1v27.3c0-.1.1-.1.1-.1l.1.1V24.7c0-.1.1-.1.1-.1l.1.1v2.1c0-.1.1-.1.1-.1.1 0 .1.1.1.1v-7.6c0-.1.1-.1.1-.1l.1.1v15.7c0-.1.1-.1.1-.1.1 0 .1.1.1.1v-7.4c0-.1.1-.1.1-.1l.1.1v20.3h.2V23.5c0-.1.1-.1.1-.1.1 0 .1.1.1.1v-3.1c0-.1.1-.1.1-.1l.1.1v5.2c0-.1.1-.1.1-.1l.1.1v.4c0-.1.1-.1.1-.1.1 0 .1.1.1.1v3.4c0-.1.1-.1.1-.1.1 0 .1.1.1.1V17c0-.1.1-.1.1-.1l.1.1v23.3c0-.1.1-.1.1-.1.1 0 .1.1.1.1V9.1c0-.1.1-.1.1-.1l.1.1v27.3c0-.1.1-.1.1-.1l.1.1v4.5c0-.1.1-.1.1-.1.1 0 .1.1.1.1V23.8c0-.1.1-.1.1-.1.1 0 .1.1.1.1V10.3c0-.1.1-.1.1-.1l.1.1v29.1c0-.1.1-.1.1-.1.1 0 .1.1.1.1V36c0-.1.1-.1.1-.1l.1.1v-2c0-.1.1-.1.1-.1l.1.1v9.3c0-.1.1-.1.1-.1.1 0 .1.1.1.1V25.9c0-.1.1-.1.1-.1.1 0 .1.1.1.1v-7.6c0-.1.1-.1.1-.1l.1.1V47h.2V21.2c0-.1.1-.1.1-.1l.1.1V31c0-.1.1-.1.1-.1.1 0 .1.1.1.1v4.4c0-.1.1-.1.1-.1.1 0 .1.1.1.1v-8.3c0-.1.1-.1.1-.1l.1.1v14.1c0-.1.1-.1.1-.1.1 0 .1.1.1.1V19.4c0-.1.1-.1.1-.1l.1.1v24.1c0-.1.1-.1.1-.1.1 0 .1.1.1.1v-9.9c0-.1.1-.1.1-.1l.1.1v.4c0-.1.1-.1.1-.1.1 0 .1.1.1.1V10.3c0-.1.1-.1.1-.1l.1.1V6.6c0-.1.1-.1.1-.1l.1.1v21.8c0-.1.1-.1.1-.1.1 0 .1.1.1.1v-4.8c0-.1.1-.1.1-.1.1 0 .1.1.1.1v-8.5c0-.1.1-.1.1-.1l.1.1v31.6h.2V12.4c0-.1.1-.1.1-.1l.1.1v29.2c0-.1.1-.1.1-.1.1 0 .1.1.1.1V8.2c0-.1.1-.1.1-.1l.1.1V37c0-.1.1-.1.1-.1.1 0 .1.1.1.1V22.2c0-.1.1-.1.1-.1l.1.1v11.9c0-.1.1-.1.1-.1l.1.1v6.8c0-.1.1-.1.1-.1.1 0 .1.1.1.1v-3.5c0-.1.1-.1.1-.1l.1.1V43c0-.1.1-.1.1-.1.1 0 .1.1.1.1V17.2c0-.1.1-.1.1-.1l.1.1v22.7c0-.1.1-.1.1-.1.1 0 .1.1.1.1V20.5c0-.1.1-.1.1-.1l.1.1v12c0-.1.1-.1.1-.1.1 0 .1.1.1.1V12.8c0-.1.1-.1.1-.1l.1.1v33.6h.2V8.3c0-.1.1-.1.1-.1l.1.1v22.5c0-.1.1-.1.1-.1.1 0 .1.1.1.1V11c0-.1.1-.1.1-.1l4.1.1V7c0-.1.1-.1.1-.1l.1.1v10.4c0-.1.1-.1.1-.1.1 0 .1.1.1.1V7.7c0-.1.1-.1.1-.1l.1.1v38.7h.2V12.2c0-.1.1-.1.1-.1l.1.1v34.2h.2V4.6c0-.1.1-.1.1-.1l.1.1v28c0-.1.1-.1.1-.1.1 0 .1.1.1.1V10.2c0-.1.1-.1.1-.1l.1.1v24.2c0-.1.1-.1.1-.1.1 0 .1.1.1.1V17.5c0-.1.1-.1.1-.1.1 0 .1.1.1.1v-1.7c0-.1.1-.1.1-.1l.1.1v20.8c0-.1.1-.1.1-.1.1 0 .1.1.1.1V15.2c0-.1.1-.1.1-.1l.1.1v26.7c0-.1.1-.1.1-.1.1 0 .1.1.1.1V1.7c0-.1.1-.1.1-.1l.1.1v37.1c0-.1.1-.1.1-.1l.1.1V27.5c0-.1.1-.1.1-.1.1 0 .1.1.1.1V15.2c0-.1.1-.1.1-.1l.1.1v17.5c0-.1.1-.1.1-.1.1 0 .1.1.1.1v-13c0-.1.1-.1.1-.1l.1.1v11.8c0-.1.1-.1.1-.1.1 0 .1.1.1.1v-7c0-.1.1-.1.1-.1l.1.1v-3.1c0-.1.1-.1.1-.1l.1.1v2c0-.1.1-.1.1-.1.1 0 .1.1.1.1v5c0-.1.1-.1.1-.1.1 0 .1.1.1.1v-16c0-.1.1-.1.1-.1l.1.1V16c0-.1.1-.1.1-.1l.1.1v2.9c0-.1.1-.1.1-.1.1 0 .1.1.1.1v16c0-.1.1-.1.1-.1.1 0 .1.1.1.1V14.7c0-.1.1-.1.1-.1l.1.1v15.2c0-.1.1-.1.1-.1.1 0 .1.1.1.1V12.6c0-.1.1-.1.1-.1l.1.1v2.5c0-.1.1-.1.1-.1l.1.1v7.1c0-.1.1-.1.1-.1.1 0 .1.1.1.1v-9.9c0-.1.1-.1.1-.1l.1.1v6.5c0-.1.1-.1.1-.1.1 0 .1.1.1.1V27c0-.1.1-.1.1-.1.1 0 .1.1.1.1V3.8c0-.1.1-.1.1-.1l.1.1v1c0-.1.1-.1.1-.1l.1.1v12c0-.1.1-.1.1-.1.1 0 .1.1.1.1v-4.5c0-.1.1-.1.1-.1l.1.1v.8c0-.1.1-.1.1-.1l.1.1V13c0-.1.1-.1.1-.1.1 0 .1.1.1.1V3.8c0-.1.1-.1.1-.1l.1.1v10.5c0-.1.1-.1.1-.1.1 0 .1.1.1.1v-3.4c0-.1.1-.1.1-.1l.1.1v1.3c0-.1.1-.1.1-.1.1 0 .1.1.1.1v.5c0-.1.1-.1.1-.1l.1.1v.9c0-.1.1-.1.1-.1.1 0 .1.1.1.1v16.1c0-.1.1-.1.1-.1.1 0 .1.1.1.1v-22c0-.1.1-.1.1-.1l.1.1V14c0-.1.1-.1.1-.1.1 0 .1.1.1.1V8.6c0-.1.1-.1.1-.1l.1.1v11.5c0-.1.1-.1.1-.1l.1.1v19.4c0-.1.1-.1.1-.1.1 0 .1.1.1.1V20.9c0-.1.1-.1.1-.1.1 0 .1.1.1.1v-5c0-.1.1-.1.1-.1l.1.1v-8c0-.1.1-.1.1-.1.1 0 .1.1.1.1V3.7c0-.1.1-.1.1-.1l.1.1v2.1c0-.1.1-.1.1-.1.1 0 .1.1.1.1V2.7c0-.1.1-.1.1-.1l.1.1V14c0-.1.1-.1.1-.1.1 0 .1.1.1.1V5.6c0-.1.1-.1.1-.1l.1.1v2.7c0-.1.1-.1.1-.1l.1.1v23.8c0-.1.1-.1.1-.1.1 0 .1.1.1.1v-9.4c0-.1.1-.1.1-.1l.1.1V7.1c0-.1.1-.1.1-.1.1 0 .1.1.1.1V.2c0-.1.1-.1.1-.1l.1.1v16.2c0-.1.1-.1.1-.1l.1.1v8c0-.1.1-.1.1-.1.1 0 .1.1.1.1v-1.2c0-.1.1-.1.1-.1.1 0 .1.1.1.1v-2.1c0-.1.1-.1.1-.1l.1.1v-9.9c0-.1.1-.1.1-.1.1 0 .1.1.1.1V4.3c0-.1.1-.1.1-.1l.1.1v10.1c0-.1.1-.1.1-.1.1 0 .1.1.1.1V.3c0-.1.1-.1.1-.1l.1.1v.1c0-.1.1-.1.1-.1l.1.1v42.9c0-.1.1-.1.1-.1.1 0 .1.1.1.1V14.8c0-.1.1-.1.1-.1l.1.1v15.1c0-.1.1-.1.1-.1.1 0 .1.1.1.1V16.8c0-.1.1-.1.1-.1l.1.1v19c0-.1.1-.1.1-.1.1 0 .1.1.1.1V13.5c0-.1.1-.1.1-.1l.1.1v18.6c0-.1.1-.1.1-.1.1 0 .1.1.1.1V13.7c0-.1.1-.1.1-.1l.1.1v1c0-.1.1-.1.1-.1.1 0 .1.1.1.1V13c0-.1.1-.1.1-.1l.1.1v6.7c0-.1.1-.1.1-.1.1 0 .1.1.1.1v6.4c0-.1.1-.1.1-.1l.1.1v4.1c0-.1.1-.1.1-.1.1 0 .1.1.1.1v3.7c0-.1.1-.1.1-.1l.1.1V19.5c0-.1.1-.1.1-.1l.1.1V33c0-.1.1-.1.1-.1.1 0 .1.1.1.1v2.8c0-.1.1-.1.1-.1.1 0 .1.1.1.1V16.4c0-.1.1-.1.1-.1l.1.1V13c0-.1.1-.1.1-.1.1 0 .1.1.1.1V2.3c0-.1.1-.1.1-.1l.1.1v34.6c0-.1.1-.1.1-.1.1 0 .1.1.1.1v-1.8c0-.1.1-.1.1-.1l.1.1v10.2c.1-.1.2-.1.2-.2V23c0-.1.1-.1.1-.1l.1.1v13.4c0-.1.1-.1.1-.1.1 0 .1.1.1.1v-14c0-.1.1-.1.1-.1l.1.1v1.3c0-.1.1-.1.1-.1l.1.1v14.8c0-.1.1-.1.1-.1.1 0 .1.1.1.1V23.9c0-.1.1-.1.1-.1l.1.1v7c0-.1.1-.1.1-.1.1 0 .1.1.1.1V16c0-.1.1-.1.1-.1l.1.1v21c0-.1.1-.1.1-.1.1 0 .1.1.1.1V12.2c0-.1.1-.1.1-.1.1 0 .1.1.1.1V.1c0-.1.1-.1.1-.1H0zM255.4.1v20c0-.1.1-.1.1-.1.1 0 .1.1.1.1v-19c0-.1.1-.1.1-.1l.1.1v15.2c0-.1.1-.1.1-.1l.1.1v.3c0-.1.1-.1.1-.1.1 0 .1.1.1.1v-.8c0-.1.1-.1.1-.1l.1.1v-.1c0-.1.1-.1.1-.1l.1.1v4.2c0-.1.1-.1.1-.1.1 0 .1.1.1.1v.4c0-.1.1-.1.1-.1l.1.1v4.9c0-.1.1-.1.1-.1.1 0 .1.1.1.1v-21c0-.1.1-.1.1-.1.1 0 .1.1.1.1V2.6c0-.1.1-.1.1-.1l.1.1v9.8c0-.1.1-.1.1-.1.1 0 .1.1.1.1V5.1c0-.1.1-.1.1-.1l.1.1V.5c0-.1.1-.1.1-.1l.1.1V1c0-.1.1-.1.1-.1.1 0 .1.1.1.1v2.9c0-.1.1-.1.1-.1l.1.1v22.9c0-.1.1-.1.1-.1.1 0 .1.1.1.1V.8c0-.1.1-.1.1-.1l.1.1v17.9c0-.1.1-.1.1-.1.1 0 .1.1.1.1v-.9c0-.1.1-.1.1-.1.1 0 .1.1.1.1v-16c0-.1.1-.1.1-.1l.1.1v29.7c0-.1.1-.1.1-.1.1 0 .1.1.1.1V16.7c0-.1.1-.1.1-.1l.1.1v-.8c0-.1.1-.1.1-.1l.1.1v16.6c0-.1.1-.1.1-.1.1 0 .1.1.1.1V17.6c0-.1.1-.1.1-.1.1 0 .1.1.1.1V5.7c0-.1.1-.1.1-.1l.1.1v11.2c0-.1.1-.1.1-.1l.1.1v2.3c0-.1.1-.1.1-.1.1 0 .1.1.1.1v-13c0-.1.1-.1.1-.1l.1.1v15.9c0-.1.1-.1.1-.1l.1.1v6.8c0-.1.1-.1.1-.1.1 0 .1.1.1.1V2.3c0-.1.1-.1.1-.1l.1.1v33.4c0-.1.1-.1.1-.1.1 0 .1.1.1.1V15.3c0-.1.1-.1.1-.1l.1.1v2.5c0-.1.1-.1.1-.1.1 0 .1.1.1.1v5.4c0-.1.1-.1.1-.1.1 0 .1.1.1.1v-5c0-.1.1-.1.1-.1l.1.1V32c0-.1.1-.1.1-.1.1 0 .1.1.1.1V19.1c0-.1.1-.1.1-.1l.1.1v19.5c0-.1.1-.1.1-.1.1 0 .1.1.1.1V11c0-.1.1-.1.1-.1l.1.1v14.8c0-.1.1-.1.1-.1l.1.1v5.5c0-.1.1-.1.1-.1.1 0 .1.1.1.1v1.2c0-.1.1-.1.1-.1l.1.1v1.3c0-.1.1-.1.1-.1.1 0 .1.1.1.1v-1.5c0-.1.1-.1.1-.1l.1.1v3.5c0-.1.1-.1.1-.1.1 0 .1.1.1.1V30c0-.1.1-.1.1-.1l.1.1v4.2c0-.1.1-.1.1-.1.1 0 .1.1.1.1v-.1c0-.1.1-.1.1-.1.1 0 .1.1.1.1v-.6c0-.1.1-.1.1-.1l.1.1v2.9c0-.1.1-.1.1-.1l.1.1V34c0-.1.1-.1.1-.1.1 0 .1.1.1.1v-8.5c0-.1.1-.1.1-.1l.1.1v12.2c0-.1.1-.1.1-.1.1 0 .1.1.1.1V36c0-.1.1-.1.1-.1l.1.1v-.6c0-.1.1-.1.1-.1.1 0 .1.1.1.1V29c0-.1.1-.1.1-.1l.1.1v8.7c0-.1.1-.1.1-.1.1 0 .1.1.1.1v-.3c0-.1.1-.1.1-.1l.1.1v7c0-.1.1-.1.1-.1.1 0 .1.1.1.1v-5.5c0-.1.1-.1.1-.1l.1.1v2.7c0-.1.1-.1.1-.1.1 0 .1.1.1.1V38c0-.1.1-.1.1-.1l.1.1v-2.7c0-.1.1-.1.1-.1.1 0 .1.1.1.1V35c0-.1.1-.1.1-.1l.1.1v-.4c0-.1.1-.1.1-.1l.1.1V41c0-.1.1-.1.1-.1.1 0 .1.1.1.1v-7.7c0-.1.1-.1.1-.1l.1.1v.7c0-.1.1-.1.1-.1.1 0 .1.1.1.1v7.3c0-.1.1-.1.1-.1l.1.1v5c0-.1.1-.1.1-.1.1 0 .1.1.1.1v-6.8c0-.1.1-.1.1-.1.1 0 .1.1.1.1V38c0-.1.1-.1.1-.1l.1.1v6c0-.1.1-.1.1-.1.1 0 .1.1.1.1v-4.1c0-.1.1-.1.1-.1l.1.1v5c0-.1.1-.1.1-.1l.1.1v-7c0-.1.1-.1.1-.1.1 0 .1.1.1.1v-6.1c0-.1.1-.1.1-.1l.1.1v17h.2V31.4c0-.1.1-.1.1-.1l.1.1v11.3c0-.1.1-.1.1-.1.1 0 .1.1.1.1v-6.9c0-.1.1-.1.1-.1l.1.1v7.5c0-.1.1-.1.1-.1l.1.1v3.3c0-.1.1-.1.1-.1.1 0 .1.1.1.1v-3.4c0-.1.1-.1.1-.1.1 0 .1.1.1.1V41c0-.1.1-.1.1-.1l.1.1v5.7c0-.1.1-.1.1-.1.1 0 .1.1.1.1v-8.5c0-.1.1-.1.1-.1l.1.1v-1.7c0-.1.1-.1.1-.1l.1.1v12.6h.2V35.9c0-.1.1-.1.1-.1l.1.1v7.9c0-.1.1-.1.1-.1.1 0 .1.1.1.1V42c0-.1.1-.1.1-.1.1 0 .1.1.1.1v-.4c0-.1.1-.1.1-.1l.1.1V48c0-.1.1-.1.1-.1.1 0 .1.1.1.1v-3.2c0-.1.1-.1.1-.1l.1.1v-1.6c0-.1.1-.1.1-.1l.1.1v4.1c0-.1.1-.1.1-.1l.1.1V39c0-.1.1-.1.1-.1l.1.1v2.1c0-.1.1-.1.1-.1.1 0 .1.1.1.1v2.7c0-.1.1-.1.1-.1l.1.1v3.6c0-.1.1-.1.1-.1l.1.1V34c0-.1.1-.1.1-.1l.1.1v13.9c0-.1.1-.1.1-.1.1 0 .1.1.1.1v-6.3c0-.1.1-.1.1-.1l.1.1v2.2c0-.1.1-.1.1-.1l.1.1v3c0-.1.1-.1.1-.1.1 0 .1.1.1.1v-9.4c0-.1.1-.1.1-.1l.1.1V35c0-.1.1-.1.1-.1l.1.1v14.4h.2v-3.7c0-.1.1-.1.1-.1.1 0 .1.1.1.1v-7.3c0-.1.1-.1.1-.1l.1.1v8c0-.1.1-.1.1-.1l.1.1v-3.8c0-.1.1-.1.1-.1l.1.1v2.6c0-.1.1-.1.1-.1.1 0 .1.1.1.1V33.1c0-.1.1-.1.1-.1l.1.1V45c0-.1.1-.1.1-.1l.1.1v-8c0-.1.1-.1.1-.1l.1.1v-.6c0-.1.1-.1.1-.1l.1.1V45c0-.1.1-.1.1-.1.1 0 .1.1.1.1v-.3c0-.1.1-.1.1-.1l.1.1v-2c0-.1.1-.1.1-.1l.1.1v6.7c0-.1.1-.1.1-.1l.1.1V38.7c0-.1.1-.1.1-.1l.1.1v10.6h.2v-7.5c0-.1.1-.1.1-.1l.1.1V45c0-.1.1-.1.1-.1l.1.1v4c0-.1.1-.1.1-.1.1 0 .1.1.1.1v-1.7c0-.1.1-.1.1-.1l.1.1v-8.5c0-.1.1-.1.1-.1l.1.1v4.8c0-.1.1-.1.1-.1l.1.1V46c0-.1.1-.1.1-.1.1 0 .1.1.1.1v-3.4c0-.1.1-.1.1-.1l.1.1v2.7c0-.1.1-.1.1-.1l.1.1v-8.7c0-.1.1-.1.1-.1l.1.1v10.2c0-.1.1-.1.1-.1.1 0 .1.1.1.1v-11c0-.1.1-.1.1-.1l.1.1v4.8c0-.1.1-.1.1-.1l.1.1v.8c0-.1.1-.1.1-.1l.1.1v-6.7c0-.1.1-.1.1-.1l.1.1v2.9c0-.1.1-.1.1-.1.1 0 .1.1.1.1v-1.5c0-.1.1-.1.1-.1l.1.1v10.2c0-.1.1-.1.1-.1l.1.1v1.5c0-.1.1-.1.1-.1.1 0 .1.1.1.1v-8.5c0-.1.1-.1.1-.1l.1.1v4.4c0-.1.1-.1.1-.1l.1.1v-4.5c0-.1.1-.1.1-.1l.1.1v-8c0-.1.1-.1.1-.1l.1.1v7c0-.1.1-.1.1-.1l.1.1V44c0-.1.1-.1.1-.1.1 0 .1.1.1.1V31c0-.1.1-.1.1-.1l.1.1v15.6c0-.1.1-.1.1-.1l.1.1v-1.8c0-.1.1-.1.1-.1.1 0 .1.1.1.1V33.3c0-.1.1-.1.1-.1l.1.1v7.6c0-.1.1-.1.1-.1l.1.1v-4.3c0-.1.1-.1.1-.1l.1.1c0-.1.1-.1.1-.1l.1.1v5.6c0-.1.1-.1.1-.1.1 0 .1.1.1.1v-6.8c0-.1.1-.1.1-.1l.1.1v10.2c0-.1.1-.1.1-.1l.1.1v-2c0-.1.1-.1.1-.1.1 0 .1.1.1.1V33.1c0-.1.1-.1.1-.1l.1.1v7.4c0-.1.1-.1.1-.1l.1.1v-3.1c0-.1.1-.1.1-.1l.1.1v8.9c0-.1.1-.1.1-.1.1 0 .1.1.1.1V36.1c0-.1.1-.1.1-.1l.1.1v6.1c0-.1.1-.1.1-.1l.1.1V45c0-.1.1-.1.1-.1l.1.1v-3.4c0-.1.1-.1.1-.1.1 0 .1.1.1.1v-2.2c0-.1.1-.1.1-.1l.1.1V35c0-.1.1-.1.1-.1l.1.1v6.4c0-.1.1-.1.1-.1l.1.1v-3.8c0-.1.1-.1.1-.1l.1.1v-1.8c0-.1.1-.1.1-.1l.1.1v5.6c0-.1.1-.1.1-.1.1 0 .1.1.1.1v4.9c0-.1.1-.1.1-.1l.1.1v-8.1c0-.1.1-.1.1-.1l.1.1v8c0-.1.1-.1.1-.1.1 0 .1.1.1.1V44c0-.1.1-.1.1-.1l.1.1v-.5c0-.1.1-.1.1-.1l.1.1v4.8c0-.1.1-.1.1-.1l.1.1v-2.4c0-.1.1-.1.1-.1.1 0 .1.1.1.1 0-.1.1-.1.1-.1.1 0 .1.1.1.1V49c0-.1.1-.1.1-.1l.1.1v-3.1c0-.1.1-.1.1-.1l.1.1V29.6c0-.1.1-.1.1-.1l.1.1v13.6c0-.1.1-.1.1-.1.1 0 .1.1.1.1v.5c0-.1.1-.1.1-.1l.1.1c0-.1.1-.1.1-.1l.1.1v.8c0-.1.1-.1.1-.1.1 0 .1.1.1.1V41c0-.1.1-.1.1-.1l.1.1v-1.1c0-.1.1-.1.1-.1l.1.1v1c0-.1.1-.1.1-.1l.1.1v5.4c0-.1.1-.1.1-.1.1 0 .1.1.1.1v-1.5c0-.1.1-.1.1-.1l.1.1v.9c0-.1.1-.1.1-.1l.1.1v-1.1c0-.1.1-.1.1-.1l.1.1v1c0-.1.1-.1.1-.1l.1.1v.6c0-.1.1-.1.1-.1.1 0 .1.1.1.1v-.1c0-.1.1-.1.1-.1l.1.1v.3c0-.1.1-.1.1-.1l.1.1v.1c0-.1.1-.1.1-.1l.1.1v1.1c0-.1.1-.1.1-.1.1 0 .1.1.1.1v-2c0-.1.1-.1.1-.1l.1.1v-.4c0-.1.1-.1.1-.1l.1.1v-3.5c0-.1.1-.1.1-.1l.1.1V43c0-.1.1-.1.1-.1l.1.1v.8c0-.1.1-.1.1-.1.1 0 .1.1.1.1v-.6c0-.1.1-.1.1-.1l.1.1v.1c0-.1.1-.1.1-.1l.1.1V41c0-.1.1-.1.1-.1l.1.1v2.4c0-.1.1-.1.1-.1.1 0 .1.1.1.1v.6c0-.1.1-.1.1-.1l.1.1v-1.4c0-.1.1-.1.1-.1l.1.1v-.8c0-.1.1-.1.1-.1.1 0 .1.1.1.1V38c0-.1.1-.1.1-.1l.1.1v5.7c0-.1.1-.1.1-.1l.1.1v.8c0-.1.1-.1.1-.1l.1.1v-1.7c0-.1.1-.1.1-.1.1 0 .1.1.1.1v-3.1c0-.1.1-.1.1-.1l.1.1v-2.3c0-.1.1-.1.1-.1l.1.1v4.4c0-.1.1-.1.1-.1l.1.1v-1.4c0-.1.1-.1.1-.1l.1.1v.1c0-.1.1-.1.1-.1.1 0 .1.1.1.1v-1.3c0-.1.1-.1.1-.1l.1.1v.9c0-.1.1-.1.1-.1l.1.1v.2c0-.1.1-.1.1-.1l.1.1v.5c0-.1.1-.1.1-.1l.1.1v.8c0-.1.1-.1.1-.1.1 0 .1.1.1.1v-5.5c0-.1.1-.1.1-.1l.1.1v4.7c0-.1.1-.1.1-.1l.1.1v-2c0-.1.1-.1.1-.1l.1.1v1.5c0-.1.1-.1.1-.1.1 0 .1.1.1.1v.8c0-.1.1-.1.1-.1l.1.1v.8c0-.1.1-.1.1-.1l.1.1v-8.3c0-.1.1-.1.1-.1.1 0 .1.1.1.1V31c0-.1.1-.1.1-.1l.1.1v-3.3c0-.1.1-.1.1-.1l.1.1v-1.8c0-.1.1-.1.1-.1l.1.1v-8.1c0-.1.1-.1.1-.1l.1.1v21.7c0-.1.1-.1.1-.1.1 0 .1.1.1.1V11.6c0-.1.1-.1.1-.1l.1.1v33.9c0-.1.1-.1.1-.1l.1.1V25.4c0-.1.1-.1.1-.1.1 0 .1.1.1.1V16c0-.1.1-.1.1-.1l.1.1v12c0-.1.1-.1.1-.1l.1.1v-6.8c0-.1.1-.1.1-.1l.1.1v-6.6c0-.1.1-.1.1-.1l.1.1v27c0-.1.1-.1.1-.1.1 0 .1.1.1.1V29.4c0-.1.1-.1.1-.1l.1.1V17c0-.1.1-.1.1-.1l.1.1v6.4c0-.1.1-.1.1-.1l.1.1v3.5c0-.1.1-.1.1-.1.1 0 .1.1.1.1V14.7c0-.1.1-.1.1-.1l.1.1v16.2c0-.1.1-.1.1-.1l.1.1v2c0-.1.1-.1.1-.1l.1.1V21.5c0-.1.1-.1.1-.1l.1.1v6.8c0-.1.1-.1.1-.1.1 0 .1.1.1.1v.2c0-.1.1-.1.1-.1l.1.1V21c0-.1.1-.1.1-.1l.1.1v20.3c0-.1.1-.1.1-.1.1 0 .1.1.1.1v-19c0-.1.1-.1.1-.1l.1.1v.9c0-.1.1-.1.1-.1l.1.1v6c0-.1.1-.1.1-.1l.1.1v-5.7c0-.1.1-.1.1-.1l.1.1v5.8c0-.1.1-.1.1-.1.1 0 .1.1.1.1V34c0-.1.1-.1.1-.1l.1.1v-7.8c0-.1.1-.1.1-.1l.1.1v16c0-.1.1-.1.1-.1.1 0 .1.1.1.1v-8.9c0-.1.1-.1.1-.1l.1.1v3.2c0-.1.1-.1.1-.1l.1.1v-6.4c0-.1.1-.1.1-.1l.1.1v-1c0-.1.1-.1.1-.1l.1.1v-2.3c0-.1.1-.1.1-.1l.1.1v4.7c0-.1.1-.1.1-.1.1 0 .1.1.1.1v.3c0-.1.1-.1.1-.1l.1.1v.6c0-.1.1-.1.1-.1l.1.1v-2.3c0-.1.1-.1.1-.1.1 0 .1.1.1.1v-8c0-.1.1-.1.1-.1l.1.1v9.3c0-.1.1-.1.1-.1l.1.1v1.8c0-.1.1-.1.1-.1l.1.1v-.3c0-.1.1-.1.1-.1l.1.1v11.7c0-.1.1-.1.1-.1.1 0 .1.1.1.1v-9.4c0-.1.1-.1.1-.1l.1.1v-2c0-.1.1-.1.1-.1l.1.1v-.6c0-.1.1-.1.1-.1.1 0 .1.1.1.1v-1.3c0-.1.1-.1.1-.1l.1.1v3.8c0-.1.1-.1.1-.1l.1.1v-16c0-.1.1-.1.1-.1l.1.1v19.3c0-.1.1-.1.1-.1.1 0 .1.1.1.1V36c0-.1.1-.1.1-.1l.1.1v-9.4c0-.1.1-.1.1-.1l.1.1v2.2c0-.1.1-.1.1-.1l.1.1v7.6c0-.1.1-.1.1-.1.1 0 .1.1.1.1V27c0-.1.1-.1.1-.1l.1.1v6.2c0-.1.1-.1.1-.1l.1.1v4.3c0-.1.1-.1.1-.1l.1.1v-11c0-.1.1-.1.1-.1l.1.1V25c0-.1.1-.1.1-.1l.1.1v12.8c0-.1.1-.1.1-.1.1 0 .1.1.1.1v-8.1c0-.1.1-.1.1-.1l.1.1v3.6c0-.1.1-.1.1-.1l.1.1v-2.7c0-.1.1-.1.1-.1.1 0 .1.1.1.1v-2c0-.1.1-.1.1-.1l.1.1V32c0-.1.1-.1.1-.1l.1.1v-1c0-.1.1-.1.1-.1l.1.1v2.4c0-.1.1-.1.1-.1.1 0 .1.1.1.1v-8c0-.1.1-.1.1-.1l.1.1v-.3c0-.1.1-.1.1-.1l.1.1v18.2c0-.1.1-.1.1-.1l.1.1v-17c0-.1.1-.1.1-.1l.1.1v10c0-.1.1-.1.1-.1.1 0 .1.1.1.1V24c0-.1.1-.1.1-.1l12.7.1v-2c0-.1.1-.1.1-.1l.1.1v10.6c0-.1.1-.1.1-.1.1 0 .1.1.1.1V29c0-.1.1-.1.1-.1l.1.1v-.6c0-.1.1-.1.1-.1l.1.1v3.8c0-.1.1-.1.1-.1l.1.1v6.4c0-.1.1-.1.1-.1.1 0 .1.1.1.1V30c0-.1.1-.1.1-.1l.1.1v-5.9c0-.1.1-.1.1-.1l.1.1v15.4c0-.1.1-.1.1-.1l.1.1V34c0-.1.1-.1.1-.1l.1.1v-6.7c0-.1.1-.1.1-.1l.1.1v11.4c0-.1.1-.1.1-.1.1 0 .1.1.1.1V28c0-.1.1-.1.1-.1l.1.1v2.7c0-.1.1-.1.1-.1l.1.1v5.6c0-.1.1-.1.1-.1.1 0 .1.1.1.1V24.6c0-.1.1-.1.1-.1l.1.1v6.9c0-.1.1-.1.1-.1l.1.1v-2.6c0-.1.1-.1.1-.1l.1.1v-3.6c0-.1.1-.1.1-.1l.1.1v1.8c0-.1.1-.1.1-.1.1 0 .1.1.1.1v1.5c0-.1.1-.1.1-.1l.1.1V31c0-.1.1-.1.1-.1l.1.1v4.1c0-.1.1-.1.1-.1l.1.1v2.2c0-.1.1-.1.1-.1.1 0 .1.1.1.1v.2c0-.1.1-.1.1-.1l.1.1v-6.9c0-.1.1-.1.1-.1l.1.1v1.5c0-.1.1-.1.1-.1.1 0 .1.1.1.1V28c0-.1.1-.1.1-.1l.1.1v3.5c0-.1.1-.1.1-.1l.1.1v8.2c0-.1.1-.1.1-.1l.1.1v-1.2c0-.1.1-.1.1-.1.1 0 .1.1.1.1v-9.8c0-.1.1-.1.1-.1l.1.1V39c0-.1.1-.1.1-.1l.1.1v-5c0-.1.1-.1.1-.1l.1.1v-.2c0-.1.1-.1.1-.1l.1.1v.6c0-.1.1-.1.1-.1l.1.1v3.1c0-.1.1-.1.1-.1.1 0 .1.1.1.1v-4.8c0-.1.1-.1.1-.1l.1.1v4.7c0-.1.1-.1.1-.1l.1.1V26.1c0-.1.1-.1.1-.1l.1.1v15.2c0-.1.1-.1.1-.1.1 0 .1.1.1.1V25.6c0-.1.1-.1.1-.1l.1.1v1.5c0-.1.1-.1.1-.1l.1.1v16.4c0-.1.1-.1.1-.1.1 0 .1.1.1.1V31.9c0-.1.1-.1.1-.1l.1.1v-5.8c0-.1.1-.1.1-.1l.1.1V16c0-.1.1-.1.1-.1l.1.1v5.1c0-.1.1-.1.1-.1l.1.1v6.4c0-.1.1-.1.1-.1.1 0 .1.1.1.1V23c0-.1.1-.1.1-.1l.1.1v10.6c0-.1.1-.1.1-.1l.1.1V21.3c0-.1.1-.1.1-.1l.1.1v12.2c0-.1.1-.1.1-.1.1 0 .1.1.1.1V20.1c0-.1.1-.1.1-.1l.1.1v7c0-.1.1-.1.1-.1l.1.1v-4c0-.1.1-.1.1-.1.1 0 .1.1.1.1V3.7c0-.1.1-.1.1-.1l.1.1v38.7c0-.1.1-.1.1-.1l.1.1v-37c0-.1.1-.1.1-.1l.1.1v21.9c0-.1.1-.1.1-.1l.1.1V33c0-.1.1-.1.1-.1.1 0 .1.1.1.1v-.6c0-.1.1-.1.1-.1l.1.1v-7.8c0-.1.1-.1.1-.1l.1.1v3.2c0-.1.1-.1.1-.1l.1.1v-3.2c0-.1.1-.1.1-.1.1 0 .1.1.1.1v-3.1c0-.1.1-.1.1-.1l.1.1v8.8c0-.1.1-.1.1-.1l.1.1v-4.8c0-.1.1-.1.1-.1l.1.1v6.9c0-.1.1-.1.1-.1l.1.1v.6c0-.1.1-.1.1-.1.1 0 .1.1.1.1v-4.4c0-.1.1-.1.1-.1l.1.1v7.3c0-.1.1-.1.1-.1l.1.1v-2.7c0-.1.1-.1.1-.1l.1.1v.7c0-.1.1-.1.1-.1.1 0 .1.1.1.1 0-.1.1-.1.1-.1l.1.1v1c0-.1.1-.1.1-.1l.1.1V16c0-.1.1-.1.1-.1l.1.1v32.2c0-.1.1-.1.1-.1.1 0 .1.1.1.1v-17c0-.1.1-.1.1-.1l.1.1V14.6c0-.1.1-.1.1-.1l.1.1v30.6c0-.1.1-.1.1-.1.1 0 .1.1.1.1V18.1c0-.1.1-.1.1-.1l.1.1v-.8c0-.1.1-.1.1-.1l.1.1v22.2c0-.1.1-.1.1-.1l.1.1V27.3c0-.1.1-.1.1-.1l.1.1v6.3c0-.1.1-.1.1-.1.1 0 .1.1.1.1v-4.1c0-.1.1-.1.1-.1l.1.1v-6.4c0-.1.1-.1.1-.1l.1.1v18.3c0-.1.1-.1.1-.1l.1.1v-8.1c0-.1.1-.1.1-.1.1 0 .1.1.1.1v-5c0-.1.1-.1.1-.1l.1.1v6.2c0-.1.1-.1.1-.1l.1.1v1.2c0-.1.1-.1.1-.1l.1.1v-25c0-.1.1-.1.1-.1l.1.1v36.2c0-.1.1-.1.1-.1.1 0 .1.1.1.1V29.2c0-.1.1-.1.1-.1l.1.1v-2.7c0-.1.1-.1.1-.1l.1.1v11.9c0-.1.1-.1.1-.1.1 0 .1.1.1.1V25.1c0-.1.1-.1.1-.1l.1.1V25c0-.1.1-.1.1-.1l.1.1v-2.8c0-.1.1-.1.1-.1l.1.1v12.4c0-.1.1-.1.1-.1.1 0 .1.1.1.1V19.9c0-.1.1-.1.1-.1l.1.1v14.4c0-.1.1-.1.1-.1l.1.1v-8.8c0-.1.1-.1.1-.1l.1.1v9.9c0-.1.1-.1.1-.1.1 0 .1.1.1.1v-8.1c0-.1.1-.1.1-.1l.1.1v4.3c0-.1.1-.1.1-.1l.1.1v-2c0-.1.1-.1.1-.1l.1.1v8.2c0-.1.1-.1.1-.1l.1.1v-8c0-.1.1-.1.1-.1l.1.1v5.7c0-.1.1-.1.1-.1.1 0 .1.1.1.1V23.8c0-.1.1-.1.1-.1l.1.1v.4c0-.1.1-.1.1-.1l.1.1V16c0-.1.1-.1.1-.1l.1.1v15c0-.1.1-.1.1-.1.1 0 .1.1.1.1v8.2c0-.1.1-.1.1-.1l.1.1v-14c0-.1.1-.1.1-.1l.1.1v10.4c0-.1.1-.1.1-.1l.1.1v1.2c0-.1.1-.1.1-.1.1 0 .1.1.1.1v-8.6c0-.1.1-.1.1-.1l.1.1V38c0-.1.1-.1.1-.1l.1.1V26.5c0-.1.1-.1.1-.1l.1.1v2.3c0-.1.1-.1.1-.1.1 0 .1.1.1.1v3.4c0-.1.1-.1.1-.1l.1.1v8.6c0-.1.1-.1.1-.1l.1.1V31c0-.1.1-.1.1-.1l.1.1v1.1c0-.1.1-.1.1-.1.1 0 .1.1.1.1v-7.5c0-.1.1-.1.1-.1l.1.1v16.1c0-.1.1-.1.1-.1l.1.1V20.3c0-.1.1-.1.1-.1l.1.1v18.3c0-.1.1-.1.1-.1.1 0 .1.1.1.1V16.8c0-.1.1-.1.1-.1l.1.1v9.3c0-.1.1-.1.1-.1l.1.1v10.3c0-.1.1-.1.1-.1l.1.1V27c0-.1.1-.1.1-.1l.1.1v9.2c0-.1.1-.1.1-.1.1 0 .1.1.1.1V9c0-.1.1-.1.1-.1l.1.1v13.8c0-.1.1-.1.1-.1l.1.1v-1.6c0-.1.1-.1.1-.1.1 0 .1.1.1.1v-6.7c0-.1.1-.1.1-.1l.1.1V1.7c0-.1.1-.1.1-.1l.1.1v12.1c0-.1.1-.1.1-.1l.1.1v13.7c0-.1.1-.1.1-.1.1 0 .1.1.1.1V15.7c0-.1.1-.1.1-.1l.1.1v5.9c0-.1.1-.1.1-.1l.1.1v14.5c0-.1.1-.1.1-.1l.1.1v-7.3c0-.1.1-.1.1-.1.1 0 .1.1.1.1V14.7c0-.1.1-.1.1-.1l.1.1V27c0-.1.1-.1.1-.1l6.1.1v-.9c0-.1.1-.1.1-.1l.1.1v2.2c0-.1.1-.1.1-.1.1 0 .1.1.1.1v-6.1c0-.1.1-.1.1-.1l.1.1v6.9c0-.1.1-.1.1-.1l.1.1v-2.7c0-.1.1-.1.1-.1l.1.1v1.1c0-.1.1-.1.1-.1.1 0 .1.1.1.1V26c0-.1.1-.1.1-.1l.1.1v11.4c0-.1.1-.1.1-.1l.1.1V26.8c0-.1.1-.1.1-.1l.1.1v5.7c0-.1.1-.1.1-.1l.1.1v-2.7c0-.1.1-.1.1-.1.1 0 .1.1.1.1v-13c0-.1.1-.1.1-.1l.1.1v10.7c0-.1.1-.1.1-.1l.1.1v7.8c0-.1.1-.1.1-.1l.1.1v-2.1c0-.1.1-.1.1-.1.1 0 .1.1.1.1V17.7c0-.1.1-.1.1-.1l.1.1v14.4c0-.1.1-.1.1-.1l.1.1v-8.7c0-.1.1-.1.1-.1l.1.1v-7c0-.1.1-.1.1-.1l.1.1v27.1c0-.1.1-.1.1-.1.1 0 .1.1.1.1V19.8c0-.1.1-.1.1-.1l.1.1v12.8c0-.1.1-.1.1-.1l.1.1V32c0-.1.1-.1.1-.1l.1.1v10.6c0-.1.1-.1.1-.1.1 0 .1.1.1.1v-11c0-.1.1-.1.1-.1l.1.1v-7.4c0-.1.1-.1.1-.1l.1.1v7.6c0-.1.1-.1.1-.1.1 0 .1.1.1.1v-8.7c0-.1.1-.1.1-.1l.1.1v15.4c0-.1.1-.1.1-.1l.1.1V27.7c0-.1.1-.1.1-.1l.1.1V9c0-.1.1-.1.1-.1l.1.1v25.4c0-.1.1-.1.1-.1.1 0 .1.1.1.1v-5.3c0-.1.1-.1.1-.1l.1.1V28c0-.1.1-.1.1-.1l.1.1v-2.8c0-.1.1-.1.1-.1l.1.1v9.9c0-.1.1-.1.1-.1.1 0 .1.1.1.1v-1.3c0-.1.1-.1.1-.1l.1.1V27c0-.1.1-.1.1-.1l.1.1v12.9c0-.1.1-.1.1-.1l.1.1v-8.3c0-.1.1-.1.1-.1.1 0 .1.1.1.1v-.8c0-.1.1-.1.1-.1l.1.1v1.5c0-.1.1-.1.1-.1l.1.1v-3.5c0-.1.1-.1.1-.1l.1.1v1.5c0-.1.1-.1.1-.1l.1.1v5.2c0-.1.1-.1.1-.1.1 0 .1.1.1.1v-4.6c0-.1.1-.1.1-.1l.1.1v-1.5c0-.1.1-.1.1-.1l.1.1v-4.7c0-.1.1-.1.1-.1l.1.1V35c0-.1.1-.1.1-.1.1 0 .1.1.1.1v-6.2c0-.1.1-.1.1-.1l.1.1c0-.1.1-.1.1-.1l.1.1v1.7c0-.1.1-.1.1-.1l.1.1v2.2c0-.1.1-.1.1-.1.1 0 .1.1.1.1v-5.2c0-.1.1-.1.1-.1l.1.1v9.4c0-.1.1-.1.1-.1l.1.1V25.4c0-.1.1-.1.1-.1l.1.1v6.2c0-.1.1-.1.1-.1.1 0 .1.1.1.1v8.9c0-.1.1-.1.1-.1l.1.1v-5.7c0-.1.1-.1.1-.1l.1.1v-4.1c0-.1.1-.1.1-.1l.1.1v.3c0-.1.1-.1.1-.1l.1.1v.3c0-.1.1-.1.1-.1.1 0 .1.1.1.1v-3.8c0-.1.1-.1.1-.1l.1.1V31c0-.1.1-.1.1-.1l.1.1v7.9c0-.1.1-.1.1-.1.1 0 .1.1.1.1V22.2c0-.1.1-.1.1-.1l.1.1v6.6c0-.1.1-.1.1-.1l.1.1v-.1c0-.1.1-.1.1-.1l.1.1v4.8c0-.1.1-.1.1-.1l.1.1v1.7c0-.1.1-.1.1-.1.1 0 .1.1.1.1V22.6c0-.1.1-.1.1-.1l.1.1v10.5c0-.1.1-.1.1-.1l.1.1v-5.8c0-.1.1-.1.1-.1.1 0 .1.1.1.1v-7.1c0-.1.1-.1.1-.1l.1.1v8c0-.1.1-.1.1-.1l.1.1v7.7c0-.1.1-.1.1-.1l.1.1v-5.5c0-.1.1-.1.1-.1l.1.1v6c0-.1.1-.1.1-.1.1 0 .1.1.1.1V27c0-.1.1-.1.1-.1l.1.1V15.6c0-.1.1-.1.1-.1l.1.1v.7c0-.1.1-.1.1-.1.1 0 .1.1.1.1V12c0-.1.1-.1.1-.1l.1.1v22.9c0-.1.1-.1.1-.1l.1.1V17.2c0-.1.1-.1.1-.1l.1.1V24c0-.1.1-.1.1-.1l.1.1v-4.2c0-.1.1-.1.1-.1.1 0 .1.1.1.1v-.3c0-.1.1-.1.1-.1l.1.1v.1c0-.1.1-.1.1-.1l.1.1v.1c0-.1.1-.1.1-.1l.1.1v.3c0-.1.1-.1.1-.1l.1.1v6.4c0-.1.1-.1.1-.1.1 0 .1.1.1.1v-1.9c0-.1.1-.1.1-.1l.1.1V7.8c0-.1.1-.1.1-.1l.1.1v13.6c0-.1.1-.1.1-.1l.1.1v7.1c0-.1.1-.1.1-.1.1 0 .1.1.1.1V23c0-.1.1-.1.1-.1l.1.1v-2.7c0-.1.1-.1.1-.1l.1.1V20c0-.1.1-.1.1-.1l.1.1v13.4c0-.1.1-.1.1-.1.1 0 .1.1.1.1V22.8c0-.1.1-.1.1-.1l.1.1v3.1c0-.1.1-.1.1-.1l.1.1v-5.6c0-.1.1-.1.1-.1.1 0 .1.1.1.1v-7.2c0-.1.1-.1.1-.1l.1.1V23c0-.1.1-.1.1-.1l.1.1v-7.1c0-.1.1-.1.1-.1l.1.1v8.7c0-.1.1-.1.1-.1.1 0 .1.1.1.1V24c0-.1.1-.1.1-.1l.1.1v-9.2c0-.1.1-.1.1-.1l.1.1V23c0-.1.1-.1.1-.1l.1.1v-1.3c0-.1.1-.1.1-.1l.1.1v-7.2c0-.1.1-.1.1-.1.1 0 .1.1.1.1V2.8c0-.1.1-.1.1-.1l.1.1v21.9c0-.1.1-.1.1-.1l.1.1v-.6c0-.1.1-.1.1-.1l.1.1v-4.3c0-.1.1-.1.1-.1l.1.1v.5c0-.1.1-.1.1-.1.1 0 .1.1.1.1v-4.1c0-.1.1-.1.1-.1l.1.1v6.2c0-.1.1-.1.1-.1l.1.1V17c0-.1.1-.1.1-.1.1 0 .1.1.1.1v-.7c0-.1.1-.1.1-.1l.1.1v-5.2c0-.1.1-.1.1-.1l.1.1V29c0-.1.1-.1.1-.1l.1.1V15.3c0-.1.1-.1.1-.1.1 0 .1.1.1.1v-9c0-.1.1-.1.1-.1l.1.1v3.1c0-.1.1-.1.1-.1l.1.1v-.3c5-.1 5-.1 5.1-.1s.1.1.1.1v14.7c0-.1.1-.1.1-.1.1 0 .1.1.1.1v-2.4c0-.1.1-.1.1-.1l.1.1v-2.2c0-.1.1-.1.1-.1l.1.1v.6c0-.1.1-.1.1-.1l.1.1v-6.1c0-.1.1-.1.1-.1.1 0 .1.1.1.1V3.3c0-.1.1-.1.1-.1l.1.1V1.7c0-.1.1-.1.1-.1l.1.1v28.7c0-.1.1-.1.1-.1l.1.1V15.6c0-.1.1-.1.1-.1l.1.1v9.2c0-.1.1-.1.1-.1.1 0 .1.1.1.1v-21c0-.1.1-.1.1-.1l.1.1v13.6c0-.1.1-.1.1-.1l.1.1v12c0-.1.1-.1.1-.1l.1.1V18.3c0-.1.1-.1.1-.1.1 0 .1.1.1.1v-1.9c0-.1.1-.1.1-.1l.1.1v.9c0-.1.1-.1.1-.1l.1.1v6.5c0-.1.1-.1.1-.1l.1.1v-8.4c0-.1.1-.1.1-.1l.1.1v6.4c0-.1.1-.1.1-.1.1 0 .1.1.1.1v5.1c0-.1.1-.1.1-.1l.1.1v.2c0-.1.1-.1.1-.1l.1.1v4.5c0-.1.1-.1.1-.1.1 0 .1.1.1.1v-5.7c0-.1.1-.1.1-.1l.1.1v5.5c0-.1.1-.1.1-.1l.1.1V33c0-.1.1-.1.1-.1l.1.1v-4.6c0-.1.1-.1.1-.1.1 0 .1.1.1.1v-5.9c0-.1.1-.1.1-.1l.1.1v5.1c0-.1.1-.1.1-.1l.1.1v1c0-.1.1-.1.1-.1l.1.1v-6.7c0-.1.1-.1.1-.1l.1.1v9c0-.1.1-.1.1-.1.1 0 .1.1.1.1V10.3c0-.1.1-.1.1-.1l.1.1v13.8c0-.1.1-.1.1-.1l.1.1V17c0-.1.1-.1.1-.1l.1.1V2.2c0-.1.1-.1.1-.1l.1.1V33c0-.1.1-.1.1-.1.1 0 .1.1.1.1V21.8c0-.1.1-.1.1-.1l.1.1v1.5c0-.1.1-.1.1-.1l.1.1v5.5c0-.1.1-.1.1-.1.1 0 .1.1.1.1V15.4c0-.1.1-.1.1-.1l.1.1v-.2c0-.1.1-.1.1-.1l.1.1V11c0-.1.1-.1.1-.1l.1.1v5.4c0-.1.1-.1.1-.1l.1.1v.9c0-.1.1-.1.1-.1.1 0 .1.1.1.1v13.8c0-.1.1-.1.1-.1l.1.1v-8.9c0-.1.1-.1.1-.1l.1.1v9.7c0-.1.1-.1.1-.1.1 0 .1.1.1.1v-3c0-.1.1-.1.1-.1l.1.1v-9.2c0-.1.1-.1.1-.1l.1.1v.7c0-.1.1-.1.1-.1l.1.1v11.1c0-.1.1-.1.1-.1.1 0 .1.1.1.1V25c0-.1.1-.1.1-.1l.1.1v2.4c0-.1.1-.1.1-.1l.1.1v2.7c0-.1.1-.1.1-.1l.1.1v.8c0-.1.1-.1.1-.1l.1.1v2.6c0-.1.1-.1.1-.1.1 0 .1.1.1.1v-3.7c0-.1.1-.1.1-.1l.1.1v3.4c0-.1.1-.1.1-.1l.1.1v-6.9c0-.1.1-.1.1-.1l.1.1V39c0-.1.1-.1.1-.1.1 0 .1.1.1.1v-7.1c0-.1.1-.1.1-.1l.1.1v-.3c0-.1.1-.1.1-.1l.1.1V27c0-.1.1-.1.1-.1l.1.1v9.1c0-.1.1-.1.1-.1.1 0 .1.1.1.1v-8.4c0-.1.1-.1.1-.1l.1.1v1.7c0-.1.1-.1.1-.1l.1.1v9.1c0-.1.1-.1.1-.1l.1.1v-5.8c0-.1.1-.1.1-.1.1 0 .1.1.1.1V24c0-.1.1-.1.1-.1l.1.1v15.1c0-.1.1-.1.1-.1l.1.1v-2.7c0-.1.1-.1.1-.1l.1.1v1c0-.1.1-.1.1-.1.1 0 .1.1.1.1v-3.8c0-.1.1-.1.1-.1l.1.1v-.8c0-.1.1-.1.1-.1l.1.1v-2.2c0-.1.1-.1.1-.1l.1.1v-1c0-.1.1-.1.1-.1l.1.1v8.7c0-.1.1-.1.1-.1.1 0 .1.1.1.1v.2c0-.1.1-.1.1-.1l.1.1v-3.8c0-.1.1-.1.1-.1l.1.1V34c0-.1.1-.1.1-.1l.1.1v4.4c0-.1.1-.1.1-.1.1 0 .1.1.1.1V30c0-.1.1-.1.1-.1l.1.1v10.5c0-.1.1-.1.1-.1l.1.1v-3.9c0-.1.1-.1.1-.1l.1.1v-3.4c0-.1.1-.1.1-.1.1 0 .1.1.1.1v-6.6c0-.1.1-.1.1-.1l.1.1v5.2c0-.1.1-.1.1-.1l.1.1V34c0-.1.1-.1.1-.1l.1.1v-.5c0-.1.1-.1.1-.1.1 0 .1.1.1.1V29c0-.1.1-.1.1-.1l.1.1v3.9c0-.1.1-.1.1-.1l.1.1V35c0-.1.1-.1.1-.1l.1.1v-1.4c0-.1.1-.1.1-.1.1 0 .1.1.1.1v-2.1c0-.1.1-.1.1-.1l.1.1v-4c0-.1.1-.1.1-.1l.1.1v6c0-.1.1-.1.1-.1l.1.1v-4.6c0-.1.1-.1.1-.1l.1.1v8.3c0-.1.1-.1.1-.1.1 0 .1.1.1.1V35c0-.1.1-.1.1-.1l.1.1v-5.8c0-.1.1-.1.1-.1l.1.1v7c0-.1.1-.1.1-.1.1 0 .1.1.1.1v-1.8c0-.1.1-.1.1-.1l.1.1v2.3c0-.1.1-.1.1-.1l.1.1v-1.1c0-.1.1-.1.1-.1l.1.1v-9c0-.1.1-.1.1-.1l.1.1v5.7c0-.1.1-.1.1-.1.1 0 .1.1.1.1V34c0-.1.1-.1.1-.1l.1.1v1.6c0-.1.1-.1.1-.1l.1.1v-5.3c0-.1.1-.1.1-.1l.1.1v-.2c0-.1.1-.1.1-.1.1 0 .1.1.1.1v-6.2c0-.1.1-.1.1-.1l.1.1v6.2c0-.1.1-.1.1-.1l.1.1v-.7c0-.1.1-.1.1-.1l.1.1v-1.7c0-.1.1-.1.1-.1l.1.1v6c0-.1.1-.1.1-.1.1 0 .1.1.1.1V36c0-.1.1-.1.1-.1l.1.1v1.9c0-.1.1-.1.1-.1l.1.1v2.2c0-.1.1-.1.1-.1l.1.1v2c0-.1.1-.1.1-.1.1 0 .1.1.1.1V30.8c0-.1.1-.1.1-.1l.1.1v1.4c0-.1.1-.1.1-.1l.1.1v-8.5c0-.1.1-.1.1-.1l.1.1v6.9c0-.1.1-.1.1-.1.1 0 .1.1.1.1v-4.2c0-.1.1-.1.1-.1l.1.1v4.8c0-.1.1-.1.1-.1l.1.1V33c0-.1.1-.1.1-.1l.1.1v1c0-.1.1-.1.1-.1.1 0 .1.1.1.1v1c0-.1.1-.1.1-.1l.1.1V23.6c0-.1.1-.1.1-.1l.1.1v13c0-.1.1-.1.1-.1.1 0 .1.1.1.1V34c0-.1.1-.1.1-.1l.1.1v2.5c0-.1.1-.1.1-.1l.1.1v-3.7c0-.1.1-.1.1-.1l.1.1V40c0-.1.1-.1.1-.1l.1.1v-3c0-.1.1-.1.1-.1l.1.1v2.9c0-.1.1-.1.1-.1.1 0 .1.1.1.1v-8.4c0-.1.1-.1.1-.1l.1.1v4.1c0-.1.1-.1.1-.1l.1.1v1.2c0-.1.1-.1.1-.1.1 0 .1.1.1.1V34c0-.1.1-.1.1-.1l.1.1v-1.3c0-.1.1-.1.1-.1l.1.1V20.6c0-.1.1-.1.1-.1l.1.1v17.3c0-.1.1-.1.1-.1.1 0 .1.1.1.1V24c0-.1.1-.1.1-.1l.1.1v10.8c0-.1.1-.1.1-.1l.1.1V24.3c0-.1.1-.1.1-.1l.1.1v14.4c0-.1.1-.1.1-.1.1 0 .1.1.1.1V25.2c0-.1.1-.1.1-.1l.1.1v5.5c0-.1.1-.1.1-.1l.1.1V29c0-.1.1-.1.1-.1l.1.1v-9.6c0-.1.1-.1.1-.1l.1.1v22.8c0-.1.1-.1.1-.1.1 0 .1.1.1.1V24.4c0-.1.1-.1.1-.1l.1.1v6.4c0-.1.1-.1.1-.1l.1.1v-7.3c0-.1.1-.1.1-.1.1 0 .1.1.1.1v-5.4c0-.1.1-.1.1-.1l.1.1v-3.7c0-.1.1-.1.1-.1l.1.1V20c0-.1.1-.1.1-.1l.1.1v13.3c0-.1.1-.1.1-.1l.1.1V18.5c0-.1.1-.1.1-.1l.1.1v10.1c0-.1.1-.1.1-.1.1 0 .1.1.1.1V10.2c0-.1.1-.1.1-.1l.1.1v24.5c0-.1.1-.1.1-.1l.1.1V20.3c0-.1.1-.1.1-.1l.1.1v9.4c0-.1.1-.1.1-.1.1 0 .1.1.1.1V16.1c0-.1.1-.1.1-.1l.1.1v11.4c0-.1.1-.1.1-.1l.1.1v-5.9c0-.1.1-.1.1-.1.1 0 .1.1.1.1V8.9c0-.1.1-.1.1-.1l.1.1v17.2c0-.1.1-.1.1-.1l.1.1V7.9c0-.1.1-.1.1-.1l.1.1v7.3c0-.1.1-.1.1-.1l.1.1V28c0-.1.1-.1.1-.1.1 0 .1.1.1.1V7.4c0-.1.1-.1.1-.1l.1.1v20.1c0-.1.1-.1.1-.1l.1.1V15.3c0-.1.1-.1.1-.1l.1.1v10.2c0-.1.1-.1.1-.1.1 0 .1.1.1.1v-2.7c0-.1.1-.1.1-.1l.1.1V6.5c0-.1.1-.1.1-.1l.1.1v12.4c0-.1.1-.1.1-.1.1 0 .1.1.1.1v-4.3c0-.1.1-.1.1-.1l.1.1v14c0-.1.1-.1.1-.1l.1.1V24c0-.1.1-.1.1-.1l.1.1v1.5c0-.1.1-.1.1-.1l.1.1v-4.9c0-.1.1-.1.1-.1.1 0 .1.1.1.1v-3.8c0-.1.1-.1.1-.1l.1.1v12c0-.1.1-.1.1-.1l.1.1v-2.9c0-.1.1-.1.1-.1l.1.1V23c0-.1.1-.1.1-.1l.1.1v5.5c0-.1.1-.1.1-.1.1 0 .1.1.1.1V15.8c0-.1.1-.1.1-.1l.1.1v12.1c0-.1.1-.1.1-.1l.1.1V9.4c0-.1.1-.1.1-.1.1 0 .1.1.1.1v-7c0-.1.1-.1.1-.1l.1.1v5.2c0-.1.1-.1.1-.1l.1.1v11.7c0-.1.1-.1.1-.1l.1.1v7.6c0-.1.1-.1.1-.1.1 0 .1.1.1.1V13.1c0-.1.1-.1.1-.1l.1.1v26.8c0-.1.1-.1.1-.1l.1.1v-25c0-.1.1-.1.1-.1l.1.1v14c0-.1.1-.1.1-.1.1 0 .1.1.1.1V9.2c0-.1.1-.1.1-.1l.1.1V11c0-.1.1-.1.1-.1l.1.1v12c0-.1.1-.1.1-.1l.1.1V13c0-.1.1-.1.1-.1.1 0 .1.1.1.1v-.6c0-.1.1-.1.1-.1l.1.1V6.3c0-.1.1-.1.1-.1l.1.1V5c0-.1.1-.1.1-.1l.1.1v.5c0-.1.1-.1.1-.1l.1.1v19.9c0-.1.1-.1.1-.1.1 0 .1.1.1.1V.3c0-.1.1-.1.1-.1l.1.1v24.6c0-.1.1-.1.1-.1l.1.1v-3.1c0-.1.1-.1.1-.1l.1.1V25c0-.1.1-.1.1-.1.1 0 .1.1.1.1v-5c0-.1.1-.1.1-.1l.1.1v3.1c0-.1.1-.1.1-.1l.1.1V10.5c0-.1.1-.1.1-.1l.1.1v19.8c0-.1.1-.1.1-.1.1 0 .1.1.1.1V8.1c0-.1.1-.1.1-.1l.1.1V18c0-.1.1-.1.1-.1l8.9.1v11.5c0-.1.1-.1.1-.1l.1.1v-3.8c0-.1.1-.1.1-.1.1 0 .1.1.1.1v-2.9c0-.1.1-.1.1-.1l.1.1v-10c0-.1.1-.1.1-.1l.1.1v16.4c0-.1.1-.1.1-.1l.1.1V.9c0-.1.1-.1.1-.1l.1.1v12.3c0-.1.1-.1.1-.1.1 0 .1.1.1.1V1c0-.1.1-.1.1-.1l.1.1v23c0-.1.1-.1.1-.1l.1.1v-1c0-.1.1-.1.1-.1l.1.1v2.8c0-.1.1-.1.1-.1.1 0 .1.1.1.1V13.2c0-.1.1-.1.1-.1l.1.1v-5c0-.1.1-.1.1-.1l.1.1v12.7c0-.1.1-.1.1-.1l.1.1v-.8c0-.1.1-.1.1-.1.1 0 .1.1.1.1V17c0-.1.1-.1.1-.1l.1.1v15.2c0-.1.1-.1.1-.1l.1.1v-.9c0-.1.1-.1.1-.1l.1.1V.8c0-.1.1-.1.1-.1l.1.1v20.6c0-.1.1-.1.1-.1.1 0 .1.1.1.1v5.1c0-.1.1-.1.1-.1l.1.1v-1.7c0-.1.1-.1.1-.1l.1.1V29c0-.1.1-.1.1-.1.1 0 .1.1.1.1v-3.7c0-.1.1-.1.1-.1l.1.1v-4.8c0-.1.1-.1.1-.1l.1.1V10.3c0-.1.1-.1.1-.1l.1.1v15c0-.1.1-.1.1-.1.1 0 .1.1.1.1V.7c0-.1.1-.1.1-.1l.1.1v30.7c0-.1.1-.1.1-.1l.1.1v-1.5c0-.1.1-.1.1-.1l.1.1V8.5c0-.1.1-.1.1-.1l.1.1v16.8c0-.1.1-.1.1-.1.1 0 .1.1.1.1V5.4c0-.1.1-.1.1-.1l.1.1V23c0-.1.1-.1.1-.1l.1.1V.5c0-.1.1-.1.1-.1l.1.1v25.1c0-.1.1-.1.1-.1.1 0 .1.1.1.1V27c0-.1.1-.1.1-.1l.1.1v-7.6c0-.1.1-.1.1-.1l.1.1V4.7c0-.1.1-.1.1-.1l.1.1V14c0-.1.1-.1.1-.1l.1.1v3.1c0-.1.1-.1.1-.1.1 0 .1.1.1.1v11.3c0-.1.1-.1.1-.1l.1.1V3.3c0-.1.1-.1.1-.1l.1.1v26.9c0-.1.1-.1.1-.1.1 0 .1.1.1.1v-26c0-.1.1-.1.1-.1l.1.1v18.2c0-.1.1-.1.1-.1l.1.1v-15c0-.1.1-.1.1-.1l.1.1v6.1c0-.1.1-.1.1-.1l.1.1V18c0-.1.1-.1.1-.1.1 0 .1.1.1.1v-2.6c0-.1.1-.1.1-.1l.1.1V20c0-.1.1-.1.1-.1l.1.1v14.3c0-.1.1-.1.1-.1.1 0 .1.1.1.1V.8c0-.1.1-.1.1-.1l.1.1v11.5c0-.1.1-.1.1-.1l.1.1V20c0-.1.1-.1.1-.1l.1.1v-1.7c0-.1.1-.1.1-.1l.1.1v13.6c0-.1.1-.1.1-.1.1 0 .1.1.1.1v-6.3c0-.1.1-.1.1-.1l.1.1V1.9c0-.1.1-.1.1-.1l.1.1V2c0-.1.1-.1.1-.1l.1.1v6.6c0-.1.1-.1.1-.1.1 0 .1.1.1.1V6.1c0-.1.1-.1.1-.1l.1.1v11.2c0-.1.1-.1.1-.1l.1.1v-2.9c0-.1.1-.1.1-.1l.1.1v5.9c0-.1.1-.1.1-.1.1 0 .1.1.1.1V7.5c0-.1.1-.1.1-.1l.1.1V9c0-.1.1-.1.1-.1l.1.1v9.6c0-.1.1-.1.1-.1l.1.1v-3.4c0-.1.1-.1.1-.1l.1.1V30c0-.1.1-.1.1-.1.1 0 .1.1.1.1v-7.1c0-.1.1-.1.1-.1l.1.1v-13c0-.1.1-.1.1-.1l.1.1v1c0-.1.1-.1.1-.1l.1.1v6.8c0-.1.1-.1.1-.1.1 0 .1.1.1.1v1.6c0-.1.1-.1.1-.1l.1.1V5.2c0-.1.1-.1.1-.1l.1.1v26.4c0-.1.1-.1.1-.1.1 0 .1.1.1.1v-15c0-.1.1-.1.1-.1l.1.1v4.8c0-.1.1-.1.1-.1l.1.1v-2.7c0-.1.1-.1.1-.1l.1.1V6.5c0-.1.1-.1.1-.1l.1.1v24.3c0-.1.1-.1.1-.1.1 0 .1.1.1.1v-17c0-.1.1-.1.1-.1l.1.1v-1c0-.1.1-.1.1-.1l.1.1v.1c0-.1.1-.1.1-.1l.1.1V26c0-.1.1-.1.1-.1.1 0 .1.1.1.1v-2.3c0-.1.1-.1.1-.1l.1.1V13.2c0-.1.1-.1.1-.1l.1.1v7.5c0-.1.1-.1.1-.1l.1.1V22c0-.1.1-.1.1-.1l.1.1v2c0-.1.1-.1.1-.1.1 0 .1.1.1.1v-6.6c0-.1.1-.1.1-.1l.1.1v5.8c0-.1.1-.1.1-.1l.1.1v1.3c0-.1.1-.1.1-.1.1 0 .1.1.1.1v-.1c0-.1.1-.1.1-.1l.1.1v-5.7c0-.1.1-.1.1-.1l.1.1V9.5c0-.1.1-.1.1-.1l.1.1v8.3c0-.1.1-.1.1-.1.1 0 .1.1.1.1V1.9c0-.1.1-.1.1-.1l.1.1v15.9c0-.1.1-.1.1-.1l.1.1v2.9c0-.1.1-.1.1-.1l.1.1v-3.4c0-.1.1-.1.1-.1l.1.1V22c0-.1.1-.1.1-.1.1 0 .1.1.1.1V.1c0-.1.1-.1.1-.1H255.2c.1 0 .2.1.2.1zM558.8 50.2V0h-84c.1 0 .1.1.1.1v7.6c0-.1.1-.1.1-.1l.1.1V3.8c0-.1.1-.1.1-.1l.1.1v21.7c0-.1.1-.1.1-.1.1 0 .1.1.1.1v-8.2c0-.1.1-.1.1-.1l.1.1v11.2c0-.1.1-.1.1-.1l.1.1V7.4c0-.1.1-.1.1-.1l.1.1v15.2c0-.1.1-.1.1-.1.1 0 .1.1.1.1v-2.9c0-.1.1-.1.1-.1l.1.1v.7c0-.1.1-.1.1-.1l.1.1v-.3c0-.1.1-.1.1-.1l.1.1v.5c0-.1.1-.1.1-.1l.1.1v4.9c0-.1.1-.1.1-.1.1 0 .1.1.1.1V31c0-.1.1-.1.1-.1l.1.1V.4c0-.1.1-.1.1-.1l.1.1v25.5c0-.1.1-.1.1-.1.1 0 .1.1.1.1V9.4c0-.1.1-.1.1-.1l.1.1V5.2c0-.1.1-.1.1-.1l.1.1v.6c0-.1.1-.1.1-.1l.1.1v17.1c0-.1.1-.1.1-.1l.1.1v17.4c0-.1.1-.1.1-.1.1 0 .1.1.1.1V8.7c0-.1.1-.1.1-.1l.1.1v15c0-.1.1-.1.1-.1l.1.1V1.5c0-.1.1-.1.1-.1l.1.1v13.4c0-.1.1-.1.1-.1.1 0 .1.1.1.1v-.8c0-.1.1-.1.1-.1l.1.1v13.8c0-.1.1-.1.1-.1l.1.1v-24c0-.1.1-.1.1-.1l.1.1v24.7c0-.1.1-.1.1-.1.1 0 .1.1.1.1V9.8c0-.1.1-.1.1-.1l.1.1v3.8c0-.1.1-.1.1-.1l.1.1v17.8c0-.1.1-.1.1-.1.1 0 .1.1.1.1V24c0-.1.1-.1.1-.1l.1.1V12.2c0-.1.1-.1.1-.1l.1.1v.1c0-.1.1-.1.1-.1l.1.1V9c0-.1.1-.1.1-.1l.1.1v11.5c0-.1.1-.1.1-.1.1 0 .1.1.1.1v-3.4c0-.1.1-.1.1-.1l.1.1v7.6c0-.1.1-.1.1-.1l.1.1v-8.6c0-.1.1-.1.1-.1l.1.1v5.5c0-.1.1-.1.1-.1.1 0 .1.1.1.1v-8.1c0-.1.1-.1.1-.1l.1.1v11.8c0-.1.1-.1.1-.1l.1.1v-2.2c0-.1.1-.1.1-.1l.1.1v-2.9c0-.1.1-.1.1-.1.1 0 .1.1.1.1V7.7c0-.1.1-.1.1-.1l.1.1v13.8c0-.1.1-.1.1-.1l.1.1v.1c0-.1.1-.1.1-.1l.1.1v-13c0-.1.1-.1.1-.1l.1.1v.2c0-.1.1-.1.1-.1.1 0 .1.1.1.1v6.4c0-.1.1-.1.1-.1l.1.1v2.5c0-.1.1-.1.1-.1l.1.1v10.4c0-.1.1-.1.1-.1l.1.1v7c0-.1.1-.1.1-.1.1 0 .1.1.1.1V12.5c0-.1.1-.1.1-.1l.1.1V6.3c0-.1.1-.1.1-.1l.1.1v13.4c0-.1.1-.1.1-.1.1 0 .1.1.1.1v-1c0-.1.1-.1.1-.1l.1.1v-1.5c0-.1.1-.1.1-.1l.1.1V23c0-.1.1-.1.1-.1l.1.1v-.4c0-.1.1-.1.1-.1l.1.1v2.2c0-.1.1-.1.1-.1l.1.1v12.7c0-.1.1-.1.1-.1.1 0 .1.1.1.1V29c0-.1.1-.1.1-.1l.1.1v-8.9c0-.1.1-.1.1-.1l.1.1v5.7c0-.1.1-.1.1-.1.1 0 .1.1.1.1v-3.6c0-.1.1-.1.1-.1l.1.1v8.3c0-.1.1-.1.1-.1l.1.1v-12c0-.1.1-.1.1-.1l.1.1v13.6c0-.1.1-.1.1-.1.1 0 .1.1.1.1v-4.6c0-.1.1-.1.1-.1l.1.1v8c0-.1.1-.1.1-.1l.1.1v3.4c0-.1.1-.1.1-.1l.1.1V26.3c0-.1.1-.1.1-.1.1 0 .1.1.1.1v-1c0-.1.1-.1.1-.1l.1.1v7c0-.1.1-.1.1-.1l.1.1V38c0-.1.1-.1.1-.1l.1.1v.1c0-.1.1-.1.1-.1.1 0 .1.1.1.1v-5c0-.1.1-.1.1-.1l.1.1v-3c0-.1.1-.1.1-.1l.1.1v14.8c0-.1.1-.1.1-.1l.1.1V27c0-.1.1-.1.1-.1l.1.1v4.3c0-.1.1-.1.1-.1.1 0 .1.1.1.1v5c0-.1.1-.1.1-.1l.1.1v9.9c0-.1.1-.1.1-.1l.1.1v-5c0-.1.1-.1.1-.1l.1.1V32c0-.1.1-.1.1-.1l.1.1v2.5c0-.1.1-.1.1-.1.1 0 .1.1.1.1v-1c0-.1.1-.1.1-.1l.1.1v.3c0-.1.1-.1.1-.1l.1.1v3.8c0-.1.1-.1.1-.1.1 0 .1.1.1.1v-8.1c0-.1.1-.1.1-.1l.1.1v4.4c0-.1.1-.1.1-.1l.1.1v11.9c0-.1.1-.1.1-.1l.1.1V31.3c0-.1.1-.1.1-.1l.1.1v11.2c0-.1.1-.1.1-.1.1 0 .1.1.1.1V35c0-.1.1-.1.1-.1l.1.1v1.7c0-.1.1-.1.1-.1l.1.1v2.2c0-.1.1-.1.1-.1.1 0 .1.1.1.1v-2.6c0-.1.1-.1.1-.1l.1.1V47c0-.1.1-.1.1-.1l4.2.1V35c0-.1.1-.1.1-.1l.1.1v15.1c0-.1.1-.1.1-.1.1 0 .1.1.1.1V37.9c0-.1.1-.1.1-.1l.1.1v5.5c0-.1.1-.1.1-.1l.1.1v-.2c0-.1.1-.1.1-.1l.1.1v-4.9c0-.1.1-.1.1-.1.1 0 .1.1.1.1v-2.6c0-.1.1-.1.1-.1l.1.1v1.9c0-.1.1-.1.1-.1l.1.1v7.1c0-.1.1-.1.1-.1l.1.1v-2.4c0-.1.1-.1.1-.1l.1.1v-2.8c0-.1.1-.1.1-.1l.1.1v5.1c0-.1.1-.1.1-.1.1 0 .1.1.1.1v-.3c0-.1.1-.1.1-.1l.1.1v-1c0-.1.1-.1.1-.1.1 0 .1.1.1.1v-6c0-.1.1-.1.1-.1l.1.1v-2.5c0-.1.1-.1.1-.1l.1.1v5.5c0-.1.1-.1.1-.1l.1.1V29.9c0-.1.1-.1.1-.1l.1.1v-.1c0-.1.1-.1.1-.1l.1.1v9.6c0-.1.1-.1.1-.1.1 0 .1.1.1.1v-2.3c0-.1.1-.1.1-.1l.1.1v3.3c0-.1.1-.1.1-.1l.1.1v-.5c0-.1.1-.1.1-.1l.1.1v1.8c0-.1.1-.1.1-.1.1 0 .1.1.1.1V44c0-.1.1-.1.1-.1l.1.1v-3.4c0-.1.1-.1.1-.1l.1.1v3.7c0-.1.1-.1.1-.1.1 0 .1.1.1.1v-5.5c0-.1.1-.1.1-.1l.1.1v6c0-.1.1-.1.1-.1l.1.1v-4c0-.1.1-.1.1-.1l.1.1v-.6c0-.1.1-.1.1-.1l.1.1v.4c0-.1.1-.1.1-.1.1 0 .1.1.1.1v.9c0-.1.1-.1.1-.1l.1.1v-.2c0-.1.1-.1.1-.1l.1.1V44c0-.1.1-.1.1-.1l.1.1v.8c0-.1.1-.1.1-.1l.1.1v.4c0-.1.1-.1.1-.1.1 0 .1.1.1.1v3.1c0-.1.1-.1.1-.1l.1.1V45c0-.1.1-.1.1-.1.1 0 .1.1.1.1v-1c0-.1.1-.1.1-.1l.1.1v4.1c0-.1.1-.1.1-.1l.1.1v-9.7c0-.1.1-.1.1-.1l.1.1v6.8c0-.1.1-.1.1-.1l.1.1v-.5c0-.1.1-.1.1-.1.1 0 .1.1.1.1v-3.3c0-.1.1-.1.1-.1l.1.1V44c0-.1.1-.1.1-.1l1.9.1v-3.4c0-.1.1-.1.1-.1l.1.1v1.8c0-.1.1-.1.1-.1l.1.1v.8c0-.1.1-.1.1-.1.1 0 .1.1.1.1v-4.7c0-.1.1-.1.1-.1l.1.1c0-.1.1-.1.1-.1l.1.1v-.3c0-.1.1-.1.1-.1l.1.1v3.4c0-.1.1-.1.1-.1.1 0 .1.1.1.1v-1.5c0-.1.1-.1.1-.1l.1.1v1.5c0-.1.1-.1.1-.1l.1.1v-4.2c0-.1.1-.1.1-.1l.1.1v2.4c0-.1.1-.1.1-.1.1 0 .1.1.1.1v1c0-.1.1-.1.1-.1l.1.1v-4.5c0-.1.1-.1.1-.1l.1.1v3.1c0-.1.1-.1.1-.1l.1.1v-.9c0-.1.1-.1.1-.1l.1.1v4.3c0-.1.1-.1.1-.1.1 0 .1.1.1.1v2.9c0-.1.1-.1.1-.1l.1.1v.3c0-.1.1-.1.1-.1.1 0 .1.1.1.1v-.1c0-.1.1-.1.1-.1l.1.1v1.7c0-.1.1-.1.1-.1l.1.1v-5.5c0-.1.1-.1.1-.1l.1.1v-.6c0-.1.1-.1.1-.1l.1.1v8.8h.2v-5.6c0-.1.1-.1.1-.1l.1.1v2.7c0-.1.1-.1.1-.1l.1.1V38c0-.1.1-.1.1-.1l.1.1v3c0-.1.1-.1.1-.1l.1.1v2.6c0-.1.1-.1.1-.1.1 0 .1.1.1.1v1.5c0-.1.1-.1.1-.1l.1.1v-.3c0-.1.1-.1.1-.1l.1.1v1.3c0-.1.1-.1.1-.1.1 0 .1.1.1.1v-3.6c0-.1.1-.1.1-.1l.1.1v3c0-.1.1-.1.1-.1l.1.1v1.2c0-.1.1-.1.1-.1l.1.1v-8c0-.1.1-.1.1-.1l.1.1v6.2c0-.1.1-.1.1-.1.1 0 .1.1.1.1v1c0-.1.1-.1.1-.1l.1.1v-.1c0-.1.1-.1.1-.1l.1.1v1.7c0-.1.1-.1.1-.1l.1.1V43c0-.1.1-.1.1-.1l.1.1v2.5c0-.1.1-.1.1-.1.1 0 .1.1.1.1v.1c0-.1.1-.1.1-.1l.1.1v-1.4c0-.1.1-.1.1-.1l.1.1V50c0-.1.1-.1.1-.1.1 0 .1 0 .1.1v-2.5c0-.1.1-.1.1-.1l.1.1v-.3c0-.1.1-.1.1-.1l.1.1v-.6c0-.1.1-.1.1-.1l.1.1v1.6c0-.1.1-.1.1-.1.1 0 .1.1.1.1v-2.3c0-.1.1-.1.1-.1l.1.1v.6c0-.1.1-.1.1-.1l.1.1v-.4c0-.1.1-.1.1-.1l.1.1v-1.5c0-.1.1-.1.1-.1l.1.1v2.8c0-.1.1-.1.1-.1.1 0 .1.1.1.1v-4.8c0-.1.1-.1.1-.1l.1.1v4.5c0-.1.1-.1.1-.1l.1.1v-.4c0-.1.1-.1.1-.1.1 0 .1.1.1.1V46c0-.1.1-.1.1-.1l.1.1v4.1h.2v-3.3c0-.1.1-.1.1-.1l.1.1v.6c0-.1.1-.1.1-.1.1 0 .1.1.1.1v-.3c0-.1.1-.1.1-.1l.1.1v.2c0-.1.1-.1.1-.1l.1.1v.1c0-.1.1-.1.1-.1l.1.1v-.3c0-.1.1-.1.1-.1l.1.1v2.6c0-.1.1-.1.1-.1.1 0 .1.1.1.1v-4.3c0-.1.1-.1.1-.1l.1.1v2.7c0-.1.1-.1.1-.1l.1.1v-2.4c0-.1.1-.1.1-.1l.1.1v1.4c0-.1.1-.1.1-.1.1 0 .1.1.1.1 0-.1.1-.1.1-.1l.1.1v-.4c0-.1.1-.1.1-.1l.1.1v1.8c0-.1.1-.1.1-.1l.1.1v-.2c0-.1.1-.1.1-.1.1 0 .1.1.1.1v-.2c0-.1.1-.1.1-.1l.1.1v-.6c0-.1.1-.1.1-.1l.1.1v-1.3c0-.1.1-.1.1-.1l.1.1v.6c0-.1.1-.1.1-.1l.1.1v.2c0-.1.1-.1.1-.1.1 0 .1.1.1.1v-.6c0-.1.1-.1.1-.1l.1.1v2.2c0-.1.1-.1.1-.1l.1.1v-5.3c0-.1.1-.1.1-.1l.1.1v1.8c0-.1.1-.1.1-.1.1 0 .1.1.1.1v-.4c0-.1.1-.1.1-.1l.1.1v.6c0-.1.1-.1.1-.1l.1.1V50c0-.1.1-.1.1-.1.1 0 .1.1.1.1v-6.7c0-.1.1-.1.1-.1l.1.1v2.5c0-.1.1-.1.1-.1l.1.1v.7c0-.1.1-.1.1-.1l.1.1v-5.6c0-.1.1-.1.1-.1l.1.1v-.5c0-.1.1-.1.1-.1.1 0 .1.1.1.1v-1c0-.1.1-.1.1-.1l.1.1V45c0-.1.1-.1.1-.1l.1.1v3.6c0-.1.1-.1.1-.1.1 0 .1.1.1.1v-8.1c0-.1.1-.1.1-.1l.1.1v-1.3c0-.1.1-.1.1-.1l.1.1V44c0-.1.1-.1.1-.1l.1.1v-7.1c0-.1.1-.1.1-.1l.1.1v12c0-.1.1-.1.1-.1.1 0 .1.1.1.1v-9.1c0-.1.1-.1.1-.1l.1.1v-3c0-.1.1-.1.1-.1l.1.1V50c0-.1.1-.1.1-.1l.1.1v-9c0-.1.1-.1.1-.1l.1.1v4.5c0-.1.1-.1.1-.1.1 0 .1.1.1.1v-5.9c0-.1.1-.1.1-.1l.1.1v-.8c0-.1.1-.1.1-.1l.1.1v11.3h.2V33c0-.1.1-.1.1-.1l.1.1v8.3c0-.1.1-.1.1-.1l.1.1v1.1c0-.1.1-.1.1-.1l.1.1v1.9c0-.1.1-.1.1-.1l.1.1v1.9c0-.1.1-.1.1-.1.1 0 .1.1.1.1v-2.7c0-.1.1-.1.1-.1l.1.1v-6.2c0-.1.1-.1.1-.1l.1.1v.8c0-.1.1-.1.1-.1l.1.1v3.3c0-.1.1-.1.1-.1l.1.1V46c0-.1.1-.1.1-.1.1 0 .1.1.1.1v-5.2c0-.1.1-.1.1-.1l.1.1v4.8c0-.1.1-.1.1-.1.1 0 .1.1.1.1v-7.1c0-.1.1-.1.1-.1l.1.1v11.7h.2v-8.5c0-.1.1-.1.1-.1l.1.1v4.1c0-.1.1-.1.1-.1l.1.1v-.6c0-.1.1-.1.1-.1.1 0 .1.1.1.1v-5.8c0-.1.1-.1.1-.1l.1.1v6.9c0-.1.1-.1.1-.1l.1.1v-8.7c0-.1.1-.1.1-.1l.1.1v10.7c0-.1.1-.1.1-.1.1 0 .1.1.1.1v-5.5c0-.1.1-.1.1-.1l.1.1v7.3c0-.1.1-.1.1-.1l.1.1V39c0-.1.1-.1.1-.1l.1.1v10.1c0-.1.1-.1.1-.1.1 0 .1.1.1.1v-7.2c0-.1.1-.1.1-.1l.1.1v1.2c0-.1.1-.1.1-.1l.1.1v3c0-.1.1-.1.1-.1l.1.1v-1c0-.1.1-.1.1-.1l.1.1v1.8c0-.1.1-.1.1-.1.1 0 .1.1.1.1v-.4c0-.1.1-.1.1-.1l.1.1v-.9c0-.1.1-.1.1-.1l.1.1v-1.3c0-.1.1-.1.1-.1l.1.1v.2c0-.1.1-.1.1-.1.1 0 .1.1.1.1v-.1c0-.1.1-.1.1-.1l.1.1v5.7c0-.1.1-.1.1-.1.1 0 .1.1.1.1v-4.8c0-.1.1-.1.1-.1l.1.1v3.1c0-.1.1-.1.1-.1.1 0 .1.1.1.1v.4c0-.1.1-.1.1-.1l.1.1v-1.3c0-.1.1-.1.1-.1l.1.1v.2c0-.1.1-.1.1-.1l.1.1v-.1c0-.1.1-.1.1-.1.1 0 .1.1.1.1v-1.3c0-.1.1-.1.1-.1l.1.1v2.9c0-.1.1-.1.1-.1l.1.1v-1c0-.1.1-.1.1-.1l.1.1V48c0-.1.1-.1.1-.1l.1.1v1.2c0-.1.1-.1.1-.1.1 0 .1.1.1.1v.2c0-.1.1-.1.1-.1l.1.1v-.8c0-.1.1-.1.1-.1l.1.1v.4c0-.1.1-.1.1-.1.1 0 .1.1.1.1v-2c0-.1.1-.1.1-.1l.1.1v2.2c0-.1.1-.1.1-.1l.1.1v.1c0-.1.1-.1.1-.1l.1.1v-1.8c0-.1.1-.1.1-.1l.1.1v1.6c0-.1.1-.1.1-.1.1 0 .1.1.1.1v.9h.2v-1.8c0-.1.1-.1.1-.1l.1.1v-.1c0-.1.1-.1.1-.1l.1.1v1.6c0-.1.1-.1.1-.1.1 0 .1.1.1.1v-1c0-.1.1-.1.1-.1l.1.1v1.2c0-.1.1-.1.1-.1l.1.1v-.6c0-.1.1-.1.1-.1.1 0 .1.1.1.1V49c0-.1.1-.1.1-.1l.1.1v-.1c0-.1.1-.1.1-.1l.1.1v.4c0-.1.1-.1.1-.1l.1.1V49c0-.1.1-.1.1-.1l.1.1v.3c0-.1.1-.1.1-.1.1 0 .1.1.1.1 0-.1.1-.1.1-.1.1 0 .1.1.1.1v.4c0-.1.1-.1.1-.1l.1.1v-1c0-.1.1-.1.1-.1l.1.1c0-.1.1-.1.1-.1l.1.1v.6c0-.1.1-.1.1-.1.1 0 .1.1.1.1v.2c0-.1.1-.1.1-.1l.1.1v-.6c0-.1.1-.1.1-.1l.1.1c0-.1.1-.1.1-.1l.1.1v.8c0-.1.1-.1.1-.1.1 0 .1.1.1.1v-.4c0-.1.1-.1.1-.1l.1.1v.7h-1.3c.4.1.7.2 1 .4h.5v-.1h4.7c.1 0 .1-.1.1-.1h7.2z"/></svg>